<svg id="Normal" xmlns="http://www.w3.org/2000/svg" xmlns:xlink="http://www.w3.org/1999/xlink" viewBox="0 0 354.29 108.85"><defs><style>.cls-1,.cls-7{fill:none;}.cls-2,.cls-3{fill:#0f3f93;}.cls-3,.cls-7{stroke:#fff;}.cls-3{stroke-width:0.82px;}.cls-4{clip-path:url(#clip-path);}.cls-5{fill:#5a84b7;}.cls-6{fill:#fff;}.cls-7{stroke-width:0.35px;}.cls-8{font-size:84px;}.cls-8,.cls-9{fill:#111;font-family:Futura-Medium, Futura;}.cls-9{font-size:81px;stroke:#111;stroke-miterlimit:10;stroke-width:4px;}</style><clipPath id="clip-path" transform="translate(-112.73 -161.17)"><circle id="SVGID" class="cls-1" cx="385.09" cy="212.6" r="33.29"/></clipPath></defs><title>AtlantOS Logo V2.0</title><g id="icon"><path class="cls-2" d="M397.94,181.5l13.19-2.33-2.26-12.82,0,0a44.08,44.08,0,0,0-20.77-5.15c-24.09,0-43.62,19.16-43.62,42.8,0,22.8,16.33,41.12,39.11,42.39l-.55-.4-6.79-50.78,5.68-3.29Z" transform="translate(-112.73 -161.17)"/><g id="globe"><path class="cls-3" d="M380,245.62c1,.16,4.23-14.42,7.12-32.57s4.39-33,3.36-33.17" transform="translate(-112.73 -161.17)"/><path class="cls-3" d="M385.18,246c4.9,0,8.92-14.87,9-33.25s-3.87-33.3-8.77-33.31" transform="translate(-112.73 -161.17)"/><path class="cls-3" d="M390.95,245.55c8.3-1.43,12.49-17.28,9.36-35.39s-12.39-31.64-20.69-30.2" transform="translate(-112.73 -161.17)"/><path class="cls-3" d="M397.79,243.6c10.53-4.27,13.47-21.54,6.56-38.58s-21-27.38-31.58-23.11" transform="translate(-112.73 -161.17)"/><path class="cls-3" d="M405.9,238.88c10.62-8.38,10-26.88-1.38-41.31s-29.23-19.33-39.86-10.95" transform="translate(-112.73 -161.17)"/><path class="cls-3" d="M414.09,229.43c7.41-12.79.52-30.63-15.39-39.84s-34.81-6.31-42.21,6.48" transform="translate(-112.73 -161.17)"/><path class="cls-3" d="M418.47,215.3c1.15-15-12.77-28.26-31.1-29.67s-34.12,9.59-35.27,24.57" transform="translate(-112.73 -161.17)"/><path class="cls-3" d="M416.63,201.57c-4.78-13.41-22.69-19.27-40-13.1s-27.47,22.05-22.69,35.46" transform="translate(-112.73 -161.17)"/><path class="cls-3" d="M411.41,192.13c-7.73-9.8-25.7-8.51-40.13,2.87s-19.86,28.56-12.13,38.36" transform="translate(-112.73 -161.17)"/><path class="cls-3" d="M405.7,186.47c-7.8-6.06-23.27.79-34.55,15.31s-14.1,31.2-6.3,37.26" transform="translate(-112.73 -161.17)"/><path class="cls-3" d="M400.38,183.09c-5.88-3-17.41,7.86-25.75,24.24s-10.33,32.09-4.45,35.08" transform="translate(-112.73 -161.17)"/><path class="cls-3" d="M395.41,181c-2.74-.87-9.49,12.61-15.08,30.12s-7.9,32.41-5.17,33.29" transform="translate(-112.73 -161.17)"/><path class="cls-3" d="M373.7,244A33.67,33.67,0,0,0,383.93,246" transform="translate(-112.73 -161.17)"/><path class="cls-3" d="M363.16,237.61c7.88,7,22.47,10,32.6,6.73l.35-.12" transform="translate(-112.73 -161.17)"/><path class="cls-3" d="M357.85,231.61c6,8.69,21.68,14.32,35.09,12.59a25.25,25.25,0,0,0,10.37-3.47" transform="translate(-112.73 -161.17)"/><path class="cls-3" d="M354.49,225.39c4,9.75,19.94,17.44,35.6,17.16,8.07-.14,14.88-2.42,18.72-6.26" transform="translate(-112.73 -161.17)"/><path class="cls-3" d="M352.59,219c2,10.36,17.48,19.65,34.62,20.77,11.81.77,21.82-2.58,25.83-8.64" transform="translate(-112.73 -161.17)"/><path class="cls-3" d="M352,212.55c-.06,10.54,14.41,21.05,32.33,23.47,15.16,2,28.34-2.36,31.73-10.61" transform="translate(-112.73 -161.17)"/><path class="cls-3" d="M352.65,206.2c-2.07,10.34,10.85,21.65,28.88,25.27s34.31-1.83,36.39-12.17" transform="translate(-112.73 -161.17)"/><path class="cls-3" d="M354.5,200.09c-4,9.75,6.9,21.45,24.36,26.14s34.87.57,38.88-9.18a10.88,10.88,0,0,0,.82-4.1" transform="translate(-112.73 -161.17)"/><path class="cls-3" d="M357.53,194.38c-5.82,8.79,2.63,20.45,18.87,26s34.13,3,39.95-5.8a10.7,10.7,0,0,0,1.62-8.1" transform="translate(-112.73 -161.17)"/><path class="cls-3" d="M361.75,189.21c-7.46,7.45-1.87,18.6,12.47,24.9s32,5.36,39.47-2.1a10.41,10.41,0,0,0,2.39-11.9" transform="translate(-112.73 -161.17)"/><path class="cls-3" d="M367.25,184.77c-8.86,5.71-6.56,15.83,5.14,22.61s28.37,7.63,37.23,1.92c5.85-3.77,7-9.67,3.09-15.41" transform="translate(-112.73 -161.17)"/><path class="cls-3" d="M374.46,181.28c-10,3.43-11.51,11.84-3.44,18.78s22.7,9.79,32.67,6.37,11.49-11.62,3.72-18.54" transform="translate(-112.73 -161.17)"/><path class="cls-3" d="M386.63,179.49c-10.53-.43-17.74,4.43-16.08,10.86s11.53,12,22.06,12.41,17.74-4.43,16.09-10.86c-1.05-4.09-5.54-8-11.83-10.35" transform="translate(-112.73 -161.17)"/><ellipse class="cls-3" cx="390.06" cy="188.93" rx="8.67" ry="15.11" transform="translate(15.35 373.03) rotate(-78.65)"/><ellipse class="cls-3" cx="390.38" cy="187.33" rx="5.9" ry="10.28" transform="translate(17.16 372.03) rotate(-78.65)"/><path class="cls-2" d="M385.47,185.32c-.33,1.62,1.7,3.39,4.52,4s5.37-.29,5.69-1.9-1.7-3.39-4.52-4-5.37.29-5.69,1.91" transform="translate(-112.73 -161.17)"/><ellipse class="cls-3" cx="390.58" cy="186.35" rx="2.99" ry="5.21" transform="translate(18.27 371.44) rotate(-78.65)"/><circle class="cls-2" cx="385.28" cy="212.75" r="33.28" transform="translate(-11.84 387.47) rotate(-78.65)"/><g class="cls-4"><path class="cls-5" d="M354.57,195.54c.13.05.11,0,.17,0a2.45,2.45,0,0,1,.3.25c.16.15.05.09.14.18s.18.12.32.23a.19.19,0,0,0,.3,0c.06-.07-.07-.14-.09-.21s.1,0,.14-.06,0,0,.07,0,0,0,.09-.08.09.09.14.08.09,0,.34-.13a2.1,2.1,0,0,1,.38-.1,1.57,1.57,0,0,0,.44-.21c.27-.15.11,0,.11.05s0,.07-.12.14-.06.12-.16.19-.12,0-.26.08-.06,0-.15.11-.16,0-.17,0-.22.2-.17.21.11-.08.17-.09a2.3,2.3,0,0,0,.32-.19l.31-.12c.06,0,.19-.15.33-.14a.64.64,0,0,0,.31-.06c.1,0,.12-.26.1-.37s.21,0,.21,0h0a.71.71,0,0,1,.08.25c0,.06,0,.1-.11.18s0,.1.14.26.18.19.22.19-.05-.11,0-.17a.86.86,0,0,1,.12-.24.33.33,0,0,1,.2,0s.06,0,0,.18a.38.38,0,0,1,0,.16c0,.06,0,.09.06.14s.1,0,.1,0,0,0,.06-.16.1-.13.12-.17.18,0,.25,0,.11.09.14.13a1.78,1.78,0,0,0,.23.15,1.18,1.18,0,0,0,.26.21c.2.12.11.13.29.23a1.41,1.41,0,0,0,.64.07c.09,0,0,.11.11.19s0,0,.05.07.05.18.05.18l-.19.07c-.19.07-.16.14-.15.2s.15.09.3.12.17,0,.18,0l.31.06a1.66,1.66,0,0,0,.53-.13c.16-.07.1,0,.16.14a.51.51,0,0,0,.24.2c.07,0,0,.18,0,.23s0,.05,0,.12a.12.12,0,0,0,.07.1s.11-.12.16-.12,0-.12,0-.15a.32.32,0,0,0-.05-.12c0-.06,0-.11,0-.18s.08-.17.09-.2.09,0,.18,0,.12,0,.21-.07a.4.4,0,0,0,.17-.13c0-.05,0,0-.1,0a1.79,1.79,0,0,1-.38,0c-.09,0-.08,0-.08,0a.1.1,0,0,1,0-.1c0-.06.07,0,.12-.06l.17-.07s.11-.09.13-.08l.25.08s.14.12.17.15-.05.13,0,.24.14,0,.26,0,.05,0,.11.06,0,0,.06.05l.11.07a1.44,1.44,0,0,0,.2.1c.14.07.18,0,.21-.07a.25.25,0,0,1,.22,0s.07.08.19,0,.07,0,.12.05.12,0,.22,0,0-.09,0-.13-.1-.1-.1-.13.08-.05.12-.08,0,0,.15,0a1,1,0,0,1,.18.09c.15.08.05,0,.12.08s.09.13.06.16a.43.43,0,0,0-.09.18s0,0,.12,0,0,.05,0,.11-.14.08-.2.11,0,.14,0,.1.11-.07.15-.08a.19.19,0,0,0,.12-.1c0-.07,0-.08,0-.09a1.31,1.31,0,0,0,0-.14s.17-.18.19-.21.2-.17.26-.24.16-.14.13-.18-.11,0-.14-.06a.2.2,0,0,1,0-.21s.12-.05.07-.11,0-.07,0-.11a.07.07,0,0,0,0-.08s-.1,0-.15,0,0,0-.11-.1a.83.83,0,0,0-.2-.16.88.88,0,0,1-.07-.25s.16,0,.13-.09a.69.69,0,0,1,0-.24,1.09,1.09,0,0,1,.1-.28c0-.11.11,0,.19,0s0-.09.07-.17a.37.37,0,0,1,.19-.16c.08,0,.17.08.15.12s.09.08.11,0,.11,0,.15,0,0,.14,0,.2,0,.19,0,.24,0,.05-.09.1.11.15.11.15a2.85,2.85,0,0,1,.22.24c0,.06,0,.18-.17.22s-.12.05-.11.08.14.08.21.14a.25.25,0,0,1,.1.2c0,.06,0,.08,0,.13s0,.23,0,.29.08.23.15.22,0-.18.06-.28.11-.3.2-.31.21,0,.24.08a.85.85,0,0,1,.06.34c0,.12-.09.13-.1.13s-.14,0-.14,0a.64.64,0,0,0,.1.19c0,.07.11.35.19.36s.1-.18.16-.26,0-.09.08-.15.16-.09.17-.14,0-.05,0-.14.08-.07.14-.13a.26.26,0,0,0,.11-.19.63.63,0,0,0,0-.19.89.89,0,0,1,0-.22.38.38,0,0,1,.08-.12s.16.05.18.1.15,0,.26.06a.37.37,0,0,1,.18.14c.06.07.11.08.11.13s.06.14.14.23,0,.14-.06.16-.19.06-.2.09.06.19.06.24,0,.14,0,.29a1.7,1.7,0,0,1,0,.23c0,.12-.1.09-.14.08s0,0,0,.06-.05.11-.12.18-.09,0-.21,0,0,.06-.11.15-.15,0-.2,0l-.12,0a.32.32,0,0,1-.24,0c-.06,0,0,0-.08-.05s-.06-.12-.1-.11,0,.06-.1.14,0,.11,0,.27-.1.08-.15.11a1.15,1.15,0,0,1-.27.07.52.52,0,0,1-.28-.15.29.29,0,0,0-.32,0c-.14.06.06,0,.12.11s.21.14.35.22.11-.06.29-.1,0,.07,0,.11,0,.06,0,.13-.07.08-.22.19,0,.17,0,.17,0,.06-.17.17-.1,0-.27.05-.16.07-.29.15-.06.07-.25.29-.05.1-.11.12,0,0-.25.2-.05.13-.09.19-.19.12-.28.2,0,.2-.13.29-.24.27-.28.33,0,.08-.09.23a1.61,1.61,0,0,0-.11.2c0,.1,0,.14.07.32a.33.33,0,0,1-.07.29c0,.06,0,.09.06.13s.06,0,.12,0a.27.27,0,0,1,.21.16c0,.07.05.11.07.17s0,.13,0,.21l.06.26a.86.86,0,0,0,.18,0,.26.26,0,0,1,.16,0c.09,0,.23.07.32.09a.44.44,0,0,1,.15.06,1.66,1.66,0,0,0,.31.31.51.51,0,0,0,.33.1c.07,0,.17.11.24.14s.19.13.36.2.12,0,.25-.05a.19.19,0,0,1,.22.08.49.49,0,0,1,.12.32c0,.17-.08.16-.1.22s.11.05.11.12a.46.46,0,0,1-.07.2c0,.08,0,.16.05.23a.36.36,0,0,1,0,.18.78.78,0,0,1-.05.24.1.1,0,0,0,.07.16.27.27,0,0,1,.21.17c0,.11.1,0,.22-.08s.07-.11.15-.14.16-.24.15-.28,0-.23,0-.28a3.16,3.16,0,0,1,.13-.35,1.08,1.08,0,0,0-.15-.43.11.11,0,0,1,0-.13l.28-.06c.17,0,.14-.1.35-.18s.15-.39.18-.45a.77.77,0,0,0,.12-.32,1.23,1.23,0,0,1,0-.44c0-.15-.39-.42-.45-.46a.1.1,0,0,1,0-.16c.05,0,.08-.09.18-.21A2.12,2.12,0,0,0,370,202c.05-.1.07-.16,0-.22a.64.64,0,0,1,0-.39c.05-.08,0-.08.05-.15s0-.1,0-.17a.34.34,0,0,1,0-.19c0-.07.17-.2.25-.21a2.52,2.52,0,0,1,.33.07s.14,0,.24,0,.09.12.12.11.1-.1.13-.14.08,0,.15,0a.34.34,0,0,1,.16.07.91.91,0,0,1,.09.2c0,.06.09.12.16.22s.18.1.33.21.27,0,.22.07-.11.13-.09.18a.6.6,0,0,1,0,.34c0,.09,0,.13,0,.2a.29.29,0,0,1,0,.15c0,.07-.05.11,0,.08s.13.06.2.15.07,0,.27.06.16,0,.22-.06a.41.41,0,0,1,.23-.14c.13,0,.08-.17.1-.22a2.48,2.48,0,0,1,.15-.3.6.6,0,0,0,.1-.2c0-.06.14-.1.25-.05s.12.17.11.29a.46.46,0,0,0,.07.3.32.32,0,0,1,0,.25c0,.1,0,.14.06.15s.08.14.12.19a1.78,1.78,0,0,1,.19.32.19.19,0,0,1,0,.18.59.59,0,0,0,.06.35c.06.07.25.19.26.27s.2.15.22.17a3.21,3.21,0,0,1,.5.29c0,.06-.07.21-.07.21l.1,0s.07,0,.23.07.17.11.18.22a3.61,3.61,0,0,1,0,.41.3.3,0,0,1-.06.17.63.63,0,0,1-.31.27c-.19.09-.25.1-.28.13s-.16,0-.31.09,0,.1-.12.22a1,1,0,0,1-.5.3c-.14,0-.21-.08-.29-.07l-.43.06c-.31,0-.17,0-.24,0a.61.61,0,0,0-.29,0,1.16,1.16,0,0,0-.27.22,2.81,2.81,0,0,1-.28.29c-.08,0-.08.12-.09.15l-.22.19s.06,0,.08,0a2.33,2.33,0,0,0,.3-.19c.09-.07.11,0,.27-.11s.15,0,.2-.06.09,0,.2.06.07.05.13.11,0,.16,0,.22-.12.07-.15.09-.06.06-.08.17.09.14.08.21a.31.31,0,0,0,0,.16.69.69,0,0,0,.26.3c.14.08,0,.14.09.16s.09,0,.13,0,.08,0,.19-.08.07,0,.17.09a.54.54,0,0,0,.2.11c.1,0,0,.06-.05.07a2.46,2.46,0,0,1-.33.12c-.17,0-.28.17-.4.2s-.17.15-.22.18a.61.61,0,0,0-.14.27c0,.12-.16.11-.22.09a.34.34,0,0,1-.18-.14,1.62,1.62,0,0,1,0-.26s.1-.12.12-.15a.75.75,0,0,1,.2-.14.28.28,0,0,0,.16-.14c0-.06,0-.07,0-.1s-.12,0-.17.07-.09.08-.22.19-.12.06-.22.08-.17,0-.09.09,0,.12-.11.16-.08,0-.14.07-.07.06-.12.05a.77.77,0,0,0-.21,0c-.12,0-.08,0-.12.18s-.25.15-.25.15,0,.08-.1.15a1.14,1.14,0,0,0-.19.32c-.12.25.14.23.22.2s.1,0,.09.1-.11.08-.18.1a.43.43,0,0,0-.22.11c0,.06-.12.08-.3.1s-.17.1-.32.14-.22,0-.27.08,0,.11,0,.18a1.42,1.42,0,0,1-.15.38l-.12.29s-.09-.12-.16-.14-.06.1,0,.13.06.06.11.12,0,.09,0,.22-.07.09-.11.14-.12.28-.17.26,0,0-.06-.1,0-.13,0-.22a1.12,1.12,0,0,1,0-.27c0-.07,0-.09,0-.08s-.05.1-.08.15,0,.23,0,.33.09.07.08.23.06.15.1.18a.39.39,0,0,1,.16.22c0,.11-.13,0-.17.08s0,.09.06.15-.07.12-.16.2a1.51,1.51,0,0,0-.24.19.73.73,0,0,1-.37.34.72.72,0,0,0-.37.36,3.1,3.1,0,0,0-.23.25,1.29,1.29,0,0,1-.15.16,1,1,0,0,0-.15.34,4.28,4.28,0,0,0-.07.5,2.14,2.14,0,0,0,0,.43,1.34,1.34,0,0,0,.18.45,2.07,2.07,0,0,1,.12.4.82.82,0,0,1,0,.42,1.18,1.18,0,0,1-.15.33l-.19,0s-.13-.13-.16-.21,0-.18-.07-.27a.28.28,0,0,0-.15-.17c-.07,0-.05,0-.07-.11a1.35,1.35,0,0,1,0-.26c0-.11,0-.13,0-.23a.41.41,0,0,0,0-.22c0-.07,0,0-.17,0s0-.14-.06-.26-.26,0-.31,0a.38.38,0,0,1-.3.13c-.19,0,0-.17-.07-.26s-.18,0-.27,0a1.87,1.87,0,0,1-.34.11c-.12,0-.19-.1-.2-.06s0,0-.25.12-.08.14-.06.2,0,.23-.09.2-.17-.09-.18-.07a1.74,1.74,0,0,1-.16.2s-.18.12-.24,0,0-.08-.06-.16,0,0-.17,0-.09,0-.26,0-.21,0-.28,0a.71.71,0,0,0-.26.09.54.54,0,0,0-.18.2.38.38,0,0,1-.27.23c-.17,0-.22.2-.27.24a1.36,1.36,0,0,0-.19.32c0,.07,0,.11.06.23a.62.62,0,0,1-.14.46c-.09.11,0,.22,0,.35a4,4,0,0,0,0,.4,1.72,1.72,0,0,0,0,.26c0,.13-.1.22-.15.31s0,.23,0,.28.11.09.18.21,0,.1,0,.16.15.06.23.11.1.41.07.47.15.08.38.09.11,0,.32.13.05.11.26,0a4.08,4.08,0,0,1,.4-.17c.2-.1,0,0,.23-.07s.06-.07.15-.16a.36.36,0,0,0,.12-.24s0-.34,0-.43a.36.36,0,0,1,.05-.15s.09,0,.12-.05a1.2,1.2,0,0,0,.3-.08c.05,0,.12-.11.22-.17s.06,0,.14-.06.18,0,.33.13.06.15,0,.26a1.11,1.11,0,0,1-.19.25.78.78,0,0,0,0,.29.9.9,0,0,1,0,.23,1.87,1.87,0,0,0,0,.38,1.58,1.58,0,0,1-.14.47,2,2,0,0,0-.08.22s.18,0,.37,0,.33-.07.46-.1a.94.94,0,0,1,.55,0c.15.08.21,0,.28.06a.53.53,0,0,1,.14.3c0,.08-.13.11-.11.25a2.66,2.66,0,0,1,0,.28s-.07.21,0,.28a.43.43,0,0,1,0,.29c0,.06,0,.13,0,.21s.13.1.21.2.22.28.28.34.23.07.32.14.19,0,.26-.08a3.41,3.41,0,0,0,.33-.33c.07-.1.17-.07.28-.06a3.37,3.37,0,0,1,.47.1c.18.05.1.08.16.16s.08.14.16.12,0,0,0-.18.19-.13.25-.24,0-.06,0-.15.09-.24.09-.28.06-.12.16-.23,0-.08.18-.18.16-.09.29-.18a2.23,2.23,0,0,0,.22-.17c.11-.09.06-.07.15-.2s.31-.06.37,0-.11.14-.19.16,0,.13,0,.2.05.07,0,.14a1,1,0,0,1-.09.34c-.06.13.11.16.13.17l.15.08c.07,0,.14,0,.15-.06s-.16-.25-.24-.38.07-.22.18-.27.15-.16.2-.24-.06,0-.06-.09,0-.12.15-.06a.57.57,0,0,1,.16.11c.05.05.21.14.35.23s0,.11.28.07a3.53,3.53,0,0,0,.42-.12c.12,0,.09,0,.34.12s.17,0,.27-.11-.08-.1.15-.11a2.12,2.12,0,0,0,.46-.09c.35-.07.15.06,0,.13s0,0,.07.11.25,0,.34.07a2,2,0,0,0,.47.28c.28.15.18.16.28.24s.12.2.28.29.09,0,.15,0a.9.9,0,0,1,.25.12,1,1,0,0,0,.31.13c.11,0,.14,0,.23-.08a.68.68,0,0,1,.43-.09.68.68,0,0,1,.39.1c.11.06.13,0,.21,0s.12,0,.37.17a.82.82,0,0,1,.31.19c.08.07.07.2.12.38s.2.16.29.25,0,.22,0,.32-.06.11-.05.19.24.15.29.15a1.22,1.22,0,0,1,.44.15c0,.07-.06.13,0,.11s.08,0,.15-.14.19,0,.3,0a1.48,1.48,0,0,0,.6.08c.37,0,.26.14.3.21s.06.14.11.08.14,0,.25-.06a.32.32,0,0,1,.25,0,.6.6,0,0,0,.28,0c.1,0,.14-.11.19-.11a1.72,1.72,0,0,1,.46,0,2.8,2.8,0,0,1,.59.23.91.91,0,0,0,.43.21,4.72,4.72,0,0,0,.52,0c.1,0,.26.18.33.38a3.72,3.72,0,0,1,.15.76.74.74,0,0,1-.08.39c-.06.16-.18.21-.25.37s-.19.31-.26.46a.92.92,0,0,1-.26.35c-.13.11-.05.18-.07.26s.05.21.09.29a3.59,3.59,0,0,1,.07.36,3,3,0,0,0,.11.6c.09.21,0,.33,0,.51s0,.21.07.33-.16.5-.21.63,0,.18,0,.36-.11.15-.21.28a1.11,1.11,0,0,1-.61.31c-.23,0-.12.17-.16.26a.38.38,0,0,1-.3.21c-.17,0-.13.1-.23.21l-.35.42a.33.33,0,0,0,0,.38l.13.24,0,.24a.68.68,0,0,1,0,.34,5.87,5.87,0,0,0-.17.62,1,1,0,0,1-.08.3c0,.13-.06.24-.09.33s-.11.26-.15.42-.1.38-.13.46a.53.53,0,0,1-.17.26c-.12.09-.24.28-.35.32a2.33,2.33,0,0,1-.55.07,1.15,1.15,0,0,1-.3,0s-.11,0-.11.12.06.09.14.14a.9.9,0,0,1,.3.19c.07.09.2.2.26.19s.15.06.15.19a.44.44,0,0,1-.06.27c0,.08,0,0-.12.13s0,.13-.07.28-.23.2-.31.27-.14.09-.46.21-.18.09-.19.13,0,0,.08.14,0,.14,0,.27.15.13.11.3-.19.1-.33.19-.09,0-.17,0a.9.9,0,0,1-.22,0,.12.12,0,0,0-.12.06c0,.06.08.15.19.28s.07.08.26.06.09-.08.19,0,.09.16,0,.2-.07,0-.2,0,0,.05,0,.09.06.09,0,.18-.1.08-.08.22.05.13.06.26a1,1,0,0,1,0,.24,1,1,0,0,1-.24.37c-.09.08,0,.14,0,.27s.19.18.23.22.37,0,.44.07.07.13.1.26-.11.17-.19.24-.08.11-.15.23,0,.13.07.19a.86.86,0,0,1,.07.44c0,.11-.23,0-.22.07a1,1,0,0,1,0,.25.66.66,0,0,0,0,.2c0,.07.41.29.45.41s-.08.18-.26.25-.11.2-.1.27,0,.33,0,.39-.11.09-.18.1-.16-.12-.1-.15,0-.14.05-.23-.1-.11-.17-.13-.12.1-.11.15-.15.08-.3,0,0-.12,0-.14.16,0,.17-.07-.09-.13-.15-.13,0,.11-.09.13-.14,0-.15-.1-.14,0-.1-.13,0-.12,0-.12a.38.38,0,0,0-.16.09s-.11,0-.17,0-.14,0-.2,0,0-.12,0-.15-.05-.13-.07-.15-.18,0-.22-.06,0-.12,0-.21,0-.18,0-.15.06.15.08.19.19.23.25.22,0-.19,0-.24a.41.41,0,0,1,0-.2c0-.07,0-.07-.05-.07s-.14-.1-.23-.08-.09-.14-.13-.19a1,1,0,0,1-.09-.21s.08,0,.18,0,0-.11,0-.11l-.23,0c-.09,0,0,0,0-.12s-.07-.09-.08-.15,0,0,.14-.08,0-.08-.1-.12-.06,0-.19,0-.1-.09-.15-.08.06.13,0,.16-.12,0-.21-.07.08-.18.1-.24-.06,0-.13-.07,0-.08.08-.1,0-.11.08-.14,0,0,.11.1,0,.16.13.19.07,0,.06-.12a.59.59,0,0,1,0-.24c0-.08,0-.23.06-.32s0-.15,0-.16-.12,0-.17-.07-.09-.19,0-.26,0-.07,0-.14,0-.05-.23-.06,0-.11,0-.15,0,0,0-.14,0-.06-.13-.17,0-.13,0-.22,0-.05,0-.05-.13.1-.14.14-.14,0-.26,0-.2-.28-.21-.3,0-.07,0-.23,0,0,.06-.23-.1-.06-.2-.3,0-.09-.05-.12,0,0-.06-.18-.17-.23-.12-.31.08-.06.05-.2-.1-.3-.13-.38a2,2,0,0,1,0-.35c0-.15,0-.12,0-.22s0-.1,0-.16-.06-.16,0-.31,0-.13,0-.19a.8.8,0,0,0-.1-.19s-.14-.26-.15-.3-.07-.09-.08-.13a1.52,1.52,0,0,1,0-.29.18.18,0,0,0-.11-.18c-.05,0,0-.19,0-.29s-.06-.32-.08-.4.05-.15.07-.28-.13-.27-.2-.39-.17-.11-.13-.19a.5.5,0,0,0,0-.32c0-.12-.11-.15-.18-.25s0-.24,0-.43,0-.15,0-.26-.09-.16-.17-.29,0-.17-.06-.29a1.52,1.52,0,0,0-.18-.34.77.77,0,0,1-.11-.27c0-.15-.14-.2-.22-.26a3,3,0,0,0-.43-.21c-.07,0-.22,0-.46-.11s-.17,0-.21-.06a.75.75,0,0,0-.32,0c-.16,0-.12,0-.2-.07l-.29-.28c-.17-.17-.05,0-.13-.11s-.15-.1-.18-.18a.88.88,0,0,0-.09-.22c0-.05-.29-.22-.33-.28s-.06-.16-.2-.23-.17-.24-.28-.39-.16-.14-.23-.29a.88.88,0,0,0-.23-.34,2.39,2.39,0,0,0-.28-.26,1.23,1.23,0,0,0-.3-.17c-.1,0-.14,0-.3-.19s0-.12-.05-.25-.06-.08-.09-.14a.84.84,0,0,1-.06-.34.46.46,0,0,1,.14-.36.23.23,0,0,0,.11-.26c0-.12,0-.18-.1-.15s-.12.17-.19.15,0-.16-.06-.28a.39.39,0,0,1,0-.39.66.66,0,0,0,.09-.24c0-.15,0-.07,0-.18s.2-.16.24-.2a.41.41,0,0,0,.1-.21c0-.08,0-.3.16-.39s.1-.25.11-.33a1.33,1.33,0,0,1,.06-.31c0-.06-.06-.21-.08-.32s-.11-.21-.12-.31.07-.2.08-.27a.42.42,0,0,0-.08-.18,1.56,1.56,0,0,1-.27-.17c-.06-.06,0-.14,0-.22s-.1-.1-.13-.13a.34.34,0,0,0-.3,0c-.14,0-.1.27-.24.36s0,.12.07.22,0,.11-.19.2-.15-.06-.25-.11l-.23-.11h-.24a.3.3,0,0,1-.3-.14c-.07-.11-.07,0-.29-.15s-.17-.06-.27-.13-.06,0-.18-.07,0-.18-.05-.27,0-.08-.1-.16l-.24-.26c-.09-.09-.08-.07-.27-.18s0-.16-.05-.27-.1,0-.2.05-.22,0-.4,0-.24-.07-.38-.08-.24,0-.26-.07-.34-.17-.46-.27a4.21,4.21,0,0,0-.38-.29.68.68,0,0,0-.54.1.85.85,0,0,1-.49.1c-.07,0-.41,0-.45-.07a1.33,1.33,0,0,0-.58-.19.35.35,0,0,1-.35-.16.39.39,0,0,0-.25-.2,1.82,1.82,0,0,0-.3,0,1.28,1.28,0,0,1-.46-.26,3.1,3.1,0,0,1-.4-.39c-.09-.13,0-.24,0-.37s0-.16,0-.22-.37-.65-.37-.69a.78.78,0,0,0-.23-.3c-.13-.1-.14-.08-.19-.19s-.2-.13-.28-.18-.09-.18-.08-.28a.39.39,0,0,0-.06-.27c-.06-.08-.19-.08-.33-.23s-.18-.27-.25-.3-.2-.27-.28-.37a.86.86,0,0,1-.12-.4,2,2,0,0,0-.12-.32.59.59,0,0,0-.17-.27c-.07-.06-.22-.1-.23-.14s-.14-.09-.14-.09a.63.63,0,0,1,0,.25c0,.15,0,.08,0,.18a.62.62,0,0,0,0,.25c0,.13.06.07.14.17s.08.17.19.19.06.24.12.35.17.21.15.39.14.23.2.31a1.7,1.7,0,0,1,.14.32c0,.09.09.39.17.57s.23.14.34.24a.3.3,0,0,1,.08.37c-.08.09-.19.07-.21,0s-.27-.24-.29-.28a1.35,1.35,0,0,0-.31-.28c-.12-.08,0-.22,0-.31s-.09-.15-.16-.18,0-.13-.1-.29-.23-.11-.32-.13a.28.28,0,0,1-.22-.2c-.06-.13,0-.07.18-.12s.06-.08.06-.14a1.1,1.1,0,0,0-.19-.29,4.07,4.07,0,0,0-.27-.35,2,2,0,0,1-.25-.33,2.54,2.54,0,0,1-.11-.38c-.07-.22,0-.45-.08-.6a.87.87,0,0,0-.18-.4c-.1-.11-.06,0-.19-.09a.73.73,0,0,0-.34-.14c-.12,0-.09-.12-.16-.28s-.19-.29-.26-.43a1.53,1.53,0,0,1-.09-.65c0-.14-.08-.14-.19-.2a.47.47,0,0,1-.2-.35c0-.13,0-.31,0-.43s-.08-.31-.1-.51a2.72,2.72,0,0,1,.08-.67c0-.07.1-.47.13-.62a1.5,1.5,0,0,1,.23-.56.84.84,0,0,0,.17-.33c0-.14,0-.32.07-.44s.05-.09.19-.12,0-.13-.07-.21,0-.17-.05-.3a1.52,1.52,0,0,1,.08-.56,1.17,1.17,0,0,1,.24-.06c.14,0,0,.09,0,.24s0,.12.13,0,.05-.17.1-.32,0-.19-.15-.35,0-.15-.06-.29,0-.14-.12-.12-.08,0-.17,0a.22.22,0,0,1-.16-.22c0-.13,0-.07,0-.06s-.15.07-.14,0,.08-.09,0-.09-.22.08-.29.06-.12-.32-.12-.32a1.9,1.9,0,0,1,0-.21,1.15,1.15,0,0,1,.08-.21.24.24,0,0,0,0-.14c0-.07-.09-.07-.09-.07a.2.2,0,0,1-.07-.12c0-.05,0-.1-.08-.23l0-.11s0-.3,0-.27a.07.07,0,0,1-.09,0l-.14-.09s0,0,0,.11,0,0-.08,0-.06-.1-.06-.19,0-.08,0-.14a1,1,0,0,0,0-.26.54.54,0,0,0-.06-.21.88.88,0,0,0-.14-.14s0-.06.05-.14,0-.08,0-.14,0-.18,0-.23,0,0,0-.08a.64.64,0,0,0,.08-.19c0-.07-.06-.07-.13,0a.17.17,0,0,1-.16,0s-.06-.07,0-.14a.11.11,0,0,0,0-.12,1.3,1.3,0,0,0-.11-.17s0-.11,0-.15.06-.07.07-.11,0-.08-.11-.13-.09,0-.12-.06-.08-.07-.07-.1,0-.05.05-.14a1,1,0,0,0,0-.2.43.43,0,0,1-.11.16c-.1.1-.08,0-.13,0s-.13-.12-.18-.15,0,0,0,0,0,.1,0,.14-.08.12-.13.12a.33.33,0,0,1-.2-.12c0-.07,0-.08-.08-.23s0-.09-.14-.14a.83.83,0,0,1-.17-.17c-.06-.06,0-.12.06-.21s0-.08-.09,0,0,0-.09.07-.15,0-.39,0-.06-.06-.35,0Zm54.09-10.88a.61.61,0,0,0,0,.12s.06,0,0,.06-.32.19-.31.21a.37.37,0,0,0,.06.1s.07.2.08.21,0,0,.05.05a.45.45,0,0,0,.15,0s.08,0,.08,0-.05.08-.05.08a.14.14,0,0,0,0,0l.13.1.05.09-.07.13a.31.31,0,0,0-.09.11c0,.07,0,.09,0,.12s-.12.06-.12.06a.18.18,0,0,1,0-.13s0-.12.07-.13,0,0,0-.08-.09-.08-.12-.05-.16.06-.18.08,0,.09,0,.18-.08,0-.13.06-.08,0-.15.07l-.34.2c-.08.05-.16,0-.17.1s0,.2,0,.21.14,0,.08,0-.07,0-.06.06a.13.13,0,0,0,.07.08l.13.06s.05.09.08.14a.2.2,0,0,0,.14.06h.22c.13,0,.09,0,.13,0s0,.13.08.1.1-.1.11-.1.08-.07.13,0a.22.22,0,0,1,.06.14.72.72,0,0,1,0,.14s0,0,.15.13a.9.9,0,0,1,.18.17s0,0,0,.08,0,.1,0,.15,0,.16.08.18.05.08.17.11.17.06.17.09a.21.21,0,0,1-.07.12,1,1,0,0,1-.3-.11.81.81,0,0,0-.18-.09c-.1,0,0,0-.14-.07s-.07,0-.12-.1a1.52,1.52,0,0,1-.07-.34.38.38,0,0,0,0-.17,1.55,1.55,0,0,0,0-.16c0-.05,0-.1-.07-.1h-.14s0,0-.09.09,0,.05-.14.07-.1,0-.26-.06-.23,0-.34-.08,0-.09-.2-.08-.23,0-.26,0,0,0,0,.06,0,.06.07.06l.1,0s.06.05,0,.08a.19.19,0,0,1-.07,0s-.09,0,0,0l.15.11c.05,0,.11.09.08.13s-.05.07-.11,0a.32.32,0,0,0-.19-.09s-.35.1-.34.22a.21.21,0,0,0,.13.2c.07,0,.05.07.18,0a.77.77,0,0,0,.18-.05l.16,0c.08,0,.18-.12.2-.15s.14,0,.16,0,0,0,.06.08a.72.72,0,0,1,0,.14s-.11,0-.18,0,0,0-.15,0a.32.32,0,0,1-.23,0h-.26a.53.53,0,0,1-.19,0s-.12,0-.13-.06a1,1,0,0,0,0-.2c0-.05,0-.11,0-.19s.05-.1,0-.17-.11-.12-.15-.13-.13-.06-.15-.05,0,.05,0,.08.07.15.08.17.08,0,.08.07a.37.37,0,0,1,0,.17c0,.08,0,.08-.06.14a.31.31,0,0,0-.07.23,1.34,1.34,0,0,0,.12.21s.2.1.24.13.12.16.18.19.09,0,.08.05a.42.42,0,0,1-.06.13s-.06,0,0,0,0,.12,0,.16,0,0,.09.07a.25.25,0,0,1,.11.16,1,1,0,0,0,0,.14s.09.06.1.06l.15,0s.1-.07.15-.09,0-.05.11-.09.16-.08.24-.08,0,0,.14,0a.45.45,0,0,1,.17.08l.28.19a2.09,2.09,0,0,0,.11.19c0,.05,0,.12.11.14a.42.42,0,0,0,.17,0h.17l.16.05h0a.28.28,0,0,1-.14.05H409c-.13,0-.13,0-.21,0s-.16,0-.17,0,0,0,0-.11a1,1,0,0,0-.13-.21c0-.06-.05-.08-.12-.1s.09,0-.11,0-.19,0-.24-.06l-.07,0-.09.16s-.05.06-.06.1a.37.37,0,0,0,0,.15,1.18,1.18,0,0,0,0,.15.82.82,0,0,0,.08.17s0,.05.06.1a3,3,0,0,1-.09.3c0,.07,0,.2,0,.24a1.07,1.07,0,0,1,0,.2s-.22.11-.25.14,0,.07,0,.05,0-.11-.17-.07a.45.45,0,0,0-.25.1c-.07.05,0,.12-.11.07l-.11-.1a.16.16,0,0,0,.12,0c.06,0,.08,0,.07-.08s0-.06.09-.07a.44.44,0,0,0,.26-.11s0-.09,0-.15a.61.61,0,0,0,0-.19c0-.06-.07-.13,0-.16s.1-.07.11-.13.08,0,0-.18-.13-.1-.08-.18.07-.14,0-.17-.16,0-.21-.08a1.47,1.47,0,0,0-.26-.28.57.57,0,0,1-.2-.21.61.61,0,0,0-.08-.16s-.19,0-.14-.11a.2.2,0,0,0,0-.27c-.08-.08-.32-.18-.33-.21a1.7,1.7,0,0,0-.08-.33c0-.11-.06-.17-.1-.2a.22.22,0,0,0-.23-.07,1.31,1.31,0,0,1-.34.07c-.1,0-.19-.07-.25-.06s-.06,0-.05.07,0,.07,0,.16,0,0,0,.18a1.59,1.59,0,0,0,.13.23.72.72,0,0,1,0,.18c0,.09.06.09,0,.13s0,0-.18.08-.17.19-.15.22,0,.1,0,.12l.14,0s.12.14.14.18.06,0,0,.06-.14.06-.13.1.07.13.08.16,0,.14,0,.15.06.05.1,0,0-.07.06-.08.09,0,.15.06l.22.11a.56.56,0,0,0,.13.11.29.29,0,0,1,.12.08,1.11,1.11,0,0,1,0,.15s.05.14.05.14l-.12-.06s0,0-.16,0-.14-.11-.18-.1l-.19,0-.18,0a.61.61,0,0,1-.22,0,.34.34,0,0,1-.18-.06.44.44,0,0,0-.26-.06.69.69,0,0,0-.2.11.33.33,0,0,1-.19,0h-.25l.07.07s-.1.08-.1.1a.1.1,0,0,0,0,.1l.15.32a.69.69,0,0,1,0,.16s-.14-.07-.15-.06a.19.19,0,0,1-.12-.08c0-.05,0-.15-.08-.07l-.14.16-.16.05c-.18.06-.15.15-.12.15s.06.05,0,.06-.09,0-.2,0a2.66,2.66,0,0,0-.32.07.87.87,0,0,0,0,.14s.15.15,0,.21l-.26.12a.21.21,0,0,1-.06-.11c0-.05,0-.14,0-.15s0,.09,0,0-.07,0,0-.14,0-.16.13-.19.32-.1.14-.1-.15-.05-.25,0-.12,0-.16.13,0,.2-.08.25-.23.09-.23.15-.24.23-.26.28a.6.6,0,0,1-.2.16c-.11.07-.23.15-.21.22a.3.3,0,0,1,0,.17c0,.06-.07.08-.06.16s0,.11,0,.17.1.11,0,.13a1.07,1.07,0,0,1-.29,0c-.14,0-.13.06-.24,0s-.18-.12-.19-.15-.08,0,0-.12.1-.15.12-.16l.14,0s.13.05.14,0a.19.19,0,0,0-.12-.14.5.5,0,0,1-.14-.08c-.07,0-.08-.07-.16-.08s-.2.08-.25.09-.24.11-.33.05-.15-.07-.16-.05a.09.09,0,0,0,0,.09l.1.05a.36.36,0,0,1,.14.07s.05,0,.07.08a.38.38,0,0,1,0,.12c0,.07,0,.13,0,.18s0,.09.09.12a.79.79,0,0,0,.15.07c.09,0,.08,0,.11.07a.48.48,0,0,1,.06.13c0,.05.07.22.07.23l0,.09s-.16-.06-.17-.08l-.17-.13-.21,0c-.11,0-.17.07-.15.12s.06.11,0,.19-.1.06-.13.11-.1,0-.09.11a.44.44,0,0,0,0,.17.48.48,0,0,0,.11.07s.09.08,0,.15a1.48,1.48,0,0,1-.24.16s-.09.07-.15.08a2,2,0,0,1-.27-.09s0-.1-.16,0-.13,0-.14.08a.06.06,0,0,0,0,.09l.17,0s0,0,.06,0,.06.13.11.14h.09c.07,0,.12,0,.14,0a.24.24,0,0,1,0,.12.17.17,0,0,0-.15,0,.34.34,0,0,0-.14.13s-.09-.07-.15-.06a.24.24,0,0,1-.18,0l-.15-.09c-.05,0-.09,0-.15-.06s0,0-.06,0l-.06-.17-.06-.13s-.05-.07,0-.1a.16.16,0,0,0,0-.12s-.18-.16-.28-.16-.14,0-.23-.05,0-.16-.14-.11l-.16.08s-.23,0-.07-.08.17-.12.17-.12l.08,0c.05,0,.07-.06.17,0l.15.05c.07,0,0,0,.14,0a1.55,1.55,0,0,0,.34,0H399c.16,0,.09,0,.25,0s.21,0,.29,0a.88.88,0,0,1,.2-.11c.06,0,.1,0,.15-.08s.1-.09.09-.13a.43.43,0,0,0,0-.18,2.23,2.23,0,0,1-.07-.22.66.66,0,0,0,0-.13s0,0-.11-.14a.54.54,0,0,0-.34-.11.21.21,0,0,1-.22,0l-.3-.16-.43-.07a3.12,3.12,0,0,0-.48,0l-.1,0c-.11,0-.14.05-.17.09s-.22,0-.27,0-.13,0-.09-.05.05-.16,0-.14a1,1,0,0,0-.21.1s0,.15-.2,0-.25,0-.36,0-.19,0-.14,0,.18-.11.21-.14.12-.09,0-.13-.29,0-.33,0a1,1,0,0,0-.23-.09c-.08,0-.07-.17-.16,0s-.11.11-.11.15a.18.18,0,0,0,0,.11s-.07.08-.08.07-.06-.19-.06-.19-.1,0-.13,0a.32.32,0,0,0,0,.19.54.54,0,0,1-.16-.1s.06-.07-.05,0-.13.05-.11.09a.27.27,0,0,0,.11.1s.05.05,0,.07,0,.06-.12,0-.19-.18-.16,0,.07.19.06.23,0,.21-.06.08-.06-.11-.15-.14a.48.48,0,0,0-.23,0l-.21.09s0,.07.06.09.15,0,.11,0,0,0-.08.06-.09,0-.12.08,0,0,0,.1,0,.15-.08.07,0-.09-.1-.14-.1-.11-.12-.05,0,.21,0,.24,0,0-.09.1a1.07,1.07,0,0,0-.08.11l-.12.11-.18.16s-.07,0,0,0a.62.62,0,0,0,.17.22s-.07-.08-.16,0-.08.12-.08.14,0,0,0,0-.05,0-.12.08-.07.06-.07.11.06.08.08.09.07.14.06.16l-.08.06s-.07.18-.07.19,0-.08-.06,0-.1.11-.09.16,0,0,0,.1a.24.24,0,0,1,0,.23.7.7,0,0,1-.17.14s.06,0,0,.1,0,.11-.07.15a.46.46,0,0,0-.13.12c-.06.08-.13.18-.07.22s0,.11.22,0,0-.07.16-.14.18-.19.19-.09.05.1,0,.14-.09.14-.25.23-.17.13-.21.11-.1-.16-.17-.11-.25.14-.1.24.34.11.23.15a.89.89,0,0,1-.39,0l-.1,0s-.15,0-.16,0a.22.22,0,0,0,.08.17s0,.13,0,.2a.58.58,0,0,1-.2.16,3.2,3.2,0,0,0-.42.31s.25,0,.29-.06a.3.3,0,0,1,.15,0s.12,0,.07,0a1.75,1.75,0,0,1-.21.06s-.1,0-.12,0l-.18,0s-.09,0,0,.06.12,0,.17,0,.15,0,.17,0,.07,0,0,.07l-.17.06-.12,0s-.09,0-.06.11a.89.89,0,0,0,.08.27c0,.06.08,0,.1.09a.48.48,0,0,0,.1.16s.06,0,.08,0,0,.05,0,.07,0,0,0,.12a1.41,1.41,0,0,0,.06.21s0,0,.06,0l.11,0s0,0,0,.06-.11.14-.11.16,0,.23,0,.25.05.07.15.1l.21,0,.12,0h.12a.36.36,0,0,0,.14-.07s.26-.12.26-.18a.26.26,0,0,1,0-.15s0-.12.07-.15.11-.09.09-.16a1,1,0,0,0,0-.13s0-.09.07,0a.29.29,0,0,0,.14.14c.09.05.13.06.11.1s0,0,0,.09,0,.08.07.16a1.71,1.71,0,0,1,.22.31l.13.11c.09.07.1.06.16.12s.08,0,.1.11.06.08.07.1-.08.13-.09.18-.11.12-.13.14a.16.16,0,0,1-.17,0c-.05-.07-.08,0-.09-.11s0-.14-.1-.15-.19,0-.18,0a.06.06,0,0,0-.1,0,.16.16,0,0,0-.06.11.33.33,0,0,1,0,.13c0,.06-.14.15-.18.13s-.1-.11-.11,0-.1.13,0,.23.06.14.08.15,0-.09.05,0a.47.47,0,0,1,.11.23.82.82,0,0,0,0,.16.48.48,0,0,0,.12.16.41.41,0,0,1,0,.29s-.09,0-.14,0-.1-.07-.22,0a.44.44,0,0,0-.11.27l-.11.1s-.21,0-.23,0-.12,0-.14.06.05.12.07.13a.36.36,0,0,1,.07.05s0,.06,0,.09,0,.06,0,.07a.14.14,0,0,1-.13-.06s-.07-.08-.08-.11,0-.07,0-.05a.22.22,0,0,0,0,.14.33.33,0,0,1,0,.14c0,.06-.06.18-.07.22a.61.61,0,0,1-.07.12l-.16.16a.25.25,0,0,1-.1.15,1.53,1.53,0,0,0-.23.16.11.11,0,0,0,0,.08.33.33,0,0,1,0,.15c0,.06,0,0-.06.12s-.09.07-.17.08-.07.06-.1.16-.09.14-.17.14-.11-.1-.16-.13-.07-.08-.11,0-.12.07-.09.11a1.47,1.47,0,0,0,.15.15s.07,0,0,.05,0,.14-.12.17-.3,0-.34,0a.63.63,0,0,0-.21.12c0,.05-.08,0-.06.06a1.06,1.06,0,0,0,.09.23s-.1,0,0,.06.14,0,.2,0,0,0,.11,0l.21.12.08.06s0,0,.07,0a.34.34,0,0,0,.14.08s0,0,.06,0,.05,0,.09.07l.08.11.09.09s0,0,0,0,0,.13,0,.19,0,.06,0,.1,0,.17,0,.2,0,.07,0,.16a2.48,2.48,0,0,1-.07.27c0,.09,0,.1-.07.16s-.07.11-.2.11a1.17,1.17,0,0,0-.31,0l-.2,0-.19,0s-.49,0-.51,0a.52.52,0,0,1-.2.11c-.07,0-.08-.1-.16-.06s-.3.19-.3.25a1.18,1.18,0,0,0,.05.25s.06.05.07.09a.58.58,0,0,1,0,.16.38.38,0,0,0,0,.13.5.5,0,0,0,0,.11.1.1,0,0,1,.05,0,.3.3,0,0,1,0,.16c0,.08,0,.18,0,.2a1.09,1.09,0,0,0,0,.13.67.67,0,0,0,0,.21,2.14,2.14,0,0,1,0,.23s0,0,0,0,0,0,.06,0,0,.14.07.18,0,0,0,.1.06.14.05.18,0,.13.09.12a.59.59,0,0,0,.2,0l.15-.09.25.05.22.17a.15.15,0,0,0,.1,0s0,0,0,0a.23.23,0,0,0-.05.12c0,.06,0,.06,0,.13a.41.41,0,0,1,0,.19.54.54,0,0,1-.06.12,3.75,3.75,0,0,1-.27.32c0,.06-.06.13-.11.18a.73.73,0,0,0-.14.22.65.65,0,0,1-.11.18s-.08,0-.1.08a.7.7,0,0,0,0,.16s.05.36.06.42.05.22.05.26,0,.06,0,.16,0,.08-.07.14l-.23.2s-.09.07-.13.13a.73.73,0,0,1-.11.15.23.23,0,0,0-.13.05,1.62,1.62,0,0,1-.21.1.51.51,0,0,0-.12.22c0,.08,0,0,0,.11a.63.63,0,0,0-.05.12.39.39,0,0,1,0,.11c0,.09,0,.08-.07.14a.71.71,0,0,1-.12.11.22.22,0,0,0-.06.12c0,.06,0,.19,0,.28s0,.13,0,.17l-.11.11s-.07,0-.09.08-.06.09-.06.15a.85.85,0,0,1,0,.16.81.81,0,0,1-.05.23,1.16,1.16,0,0,1-.08.22.29.29,0,0,0-.09.12c0,.05,0,0,0,.1a.62.62,0,0,0,.06.16c0,.05,0,.09.05.09s0-.06.1,0l.13.08s0,0,0,.07a1.39,1.39,0,0,0,0,.16.46.46,0,0,0,0,.1s.15.1.18.17a2.87,2.87,0,0,0,.12.3.13.13,0,0,1,0,.15.35.35,0,0,0-.06.14,1.42,1.42,0,0,0,0,.2.31.31,0,0,0,0,.13s0,.06,0,.12a.91.91,0,0,1-.07.14.51.51,0,0,1-.1.13.13.13,0,0,0,0,.19c.08,0,.08.07.13.09s.06,0,.08,0a.08.08,0,0,1,0,.09s-.08-.06,0,0a.5.5,0,0,1,.06.17c0,.06,0,.12,0,.13s.05,0,.1,0,0,0,0,0a.36.36,0,0,0,.15,0h.17s0,0,0,.06-.05.07.05.11.12.06.12.11,0,.06,0,.09.11,0,.17.06a3.68,3.68,0,0,1,.33.32s0,0,.07.08.09.07.12.12a.66.66,0,0,0,.12.13.12.12,0,0,1,.05.05s0,.1.05.12l.09.09.16.05a.47.47,0,0,0,.12,0l.11-.06a.08.08,0,0,0,0,.07c0,.05,0,.06.1.06l.15,0c.05,0,0,.07.07.09a.9.9,0,0,1,.16.1s-.06,0,.1.06.12,0,.2.09,0,.11.16.16.08,0,.21.06a.44.44,0,0,0,.27.06.9.9,0,0,0,.41-.18,1.32,1.32,0,0,1,.3-.24c.08,0,.44-.18.53-.2s.06-.07.25-.06a1.74,1.74,0,0,0,.31,0,.17.17,0,0,0,.19,0c.1-.07,0-.06.19-.15a.87.87,0,0,0,.33-.18s0-.06.12-.11l.55-.24a.56.56,0,0,1,.22-.09c.07,0,.12-.06.31,0a.56.56,0,0,1,.24.12s0,0,.07.05,0,.11.11.09.08,0,.13.1a.22.22,0,0,0,.21.08l.21-.07c.06,0,.35,0,.38-.07s0-.11.1-.09.05,0,.1.07,0,.08.08.09a.69.69,0,0,0,.21,0c.08,0,.08,0,.1,0a.4.4,0,0,0,0,.1.71.71,0,0,0,.06.2c.05.11.06.09.07.18a1.9,1.9,0,0,1,0,.33,1.38,1.38,0,0,0,0,.27,1.25,1.25,0,0,1,0,.25c0,.11,0,.1,0,.2s0,.11-.08.07,0,.09,0,.13l.11.11c.08.08,0,0,.08.08s0,.08.11.18.06.09.22.17l.22.11a2.49,2.49,0,0,0,.24.14.43.43,0,0,1,.22.25.82.82,0,0,0,.35.27s0,0,0,0-.06,0,0,.06.17.21.24.32.07.1.09.17a.81.81,0,0,1,0,.19c0,.15,0,.17,0,.26a1.2,1.2,0,0,0,.16.22.92.92,0,0,1,.11.17s.06.07.06.11,0,0,0,.09a.66.66,0,0,0,0,.18c0,.08,0,.19,0,.21s-.14.17-.17.26a2.44,2.44,0,0,0-.12.36.53.53,0,0,1,0,.16.44.44,0,0,0,0,.18c0,.13,0,.3,0,.35a2,2,0,0,1,0,.21c0,.1,0,.24.07.26s.08,0,.06.05-.08.07-.06.15,0,0,0,.14.12.16.19.23.16.06.2.12a.88.88,0,0,1,.1.14s.08.14.09.15a.59.59,0,0,0,0,.11c0,.05,0,0,.12.08s.14,0,.2.11a1,1,0,0,1,.08.16.51.51,0,0,1,0,.12c0,.09,0,.22,0,.22s.07.3.09.33a.54.54,0,0,1,.1.17c.05.12.07.12.11.21s0,0,.07.18a1.64,1.64,0,0,1,.1.21,1.46,1.46,0,0,1,.06.26,1,1,0,0,1,.06.12.79.79,0,0,0,.05.14.66.66,0,0,0,.15.17.23.23,0,0,1,.13,0,.93.93,0,0,1,.14.08s0,.12.05.16.05.16.1.24.13.26.15.28,0,0,.2.09.14.09.16.16,0,0,0,.15-.07.25-.07.35,0,.11.07.15.18.1.19.16,0,.08,0,.14,0,0,.12.06.16,0,.2.06a.3.3,0,0,0,.12.11.55.55,0,0,0,.18,0h0s.07-.16.11-.17,0,.14.17-.07.24-.19.27-.2.12,0,.16,0,0-.06.11-.07.06,0,.21,0,.11,0,.2-.11,0-.08.15-.08a.4.4,0,0,0,.28-.07.06.06,0,0,1,.08,0,.48.48,0,0,0,.39-.2c.15-.18.12-.55.32-.67a.81.81,0,0,0,.3-.28,2.11,2.11,0,0,0,.14-.25c.07-.11.18-.24.21-.32s0-.24.11-.37a1.15,1.15,0,0,0,.27-.39.55.55,0,0,0,0-.34c0-.21-.12-.26-.1-.36s.09-.16.26-.3.26-.14.41-.39a1,1,0,0,0,.06-.7,3.29,3.29,0,0,0-.15-.61c-.07-.14-.12-.18-.11-.28s0-.15,0-.22a1,1,0,0,1,.2-.24c.13-.1.12-.15.19-.2a.53.53,0,0,0,.23-.31c.08-.23,0-.25.19-.3s.26,0,.4-.2l.29-.35c.12-.14.11-.23,0-.28s-.18-.11-.14-.24a.52.52,0,0,0,.07-.28,1.79,1.79,0,0,0,0-.37.79.79,0,0,1-.05-.27c0-.18.09-.15-.06-.3s-.22-.11-.29-.23a2,2,0,0,1-.23-.37,1.5,1.5,0,0,1-.08-.26l0-.27c0-.06-.06-.08-.12-.28l-.08-.26a.56.56,0,0,1,0-.3,1.79,1.79,0,0,0,.06-.42c0-.06,0-.15.09-.18s.08,0,.12-.13,0-.16.08-.24.08-.13.13-.18l.15-.15c.11-.12.12-.14.12-.25s-.06-.1.06-.19a.7.7,0,0,0,.21-.25c.07-.12,0-.13.13-.22a.69.69,0,0,0,.23-.3,1.4,1.4,0,0,1,.31-.44,1.55,1.55,0,0,0,.3-.33,1.16,1.16,0,0,0,.09-.24.7.7,0,0,1,.1-.28c.1-.15.12-.34.18-.43s.11,0,.11-.18,0-.24,0-.31,0-.14,0-.23-.07-.06,0-.14,0-.19.09-.27,0-.12,0-.18a.94.94,0,0,0,0-.34.67.67,0,0,1,0-.23c0-.07,0-.22-.1-.23s-.1-.07-.16,0a2.28,2.28,0,0,1-.21.19,1.35,1.35,0,0,1-.24.08.38.38,0,0,0-.2.12.54.54,0,0,1-.23.11c-.09,0-.23.06-.27.13s-.08.11-.24.18a1.26,1.26,0,0,0-.33.18s-.09.15-.16.1a.94.94,0,0,0-.22-.14c-.11-.05-.23-.08-.27-.15s-.14-.12-.11-.19.07-.08.06-.15,0-.06-.07-.14a.51.51,0,0,0-.2-.1,1,1,0,0,1-.35-.11,1.37,1.37,0,0,0-.28-.2l-.31-.16s-.09-.1-.16-.1-.27,0-.29-.16a.47.47,0,0,0-.12-.32c-.11-.12-.15-.14-.2-.19s-.23-.15-.3-.22-.23-.16-.22-.17a.69.69,0,0,0-.07-.25.46.46,0,0,1-.11-.12,1.78,1.78,0,0,1-.16-.31c0-.09,0-.12-.1-.23a2.55,2.55,0,0,0-.26-.19,2.53,2.53,0,0,1-.21-.16c0-.05-.23-.17-.18-.22s0,0,.06-.05a.1.1,0,0,0,0-.08.74.74,0,0,0-.23-.16c-.11,0-.3-.11-.34-.18a2.11,2.11,0,0,1-.1-.22l-.25-.2-.11-.19-.17-.08-.18-.2-.22-.19-.17-.24s0-.11,0-.11l.09,0a.91.91,0,0,1,.13.15l.17.21.18.21.17.22s0,.07.06.09l.13,0,.05-.07,0-.13-.08-.15,0-.14s0-.14,0-.15l.09-.07,0,0,.06.11s0,.16,0,.19a1.81,1.81,0,0,0,.22.17l.15.07.12.13a1.26,1.26,0,0,1,.06.13,1.46,1.46,0,0,0,.15.14l.23.14.11.13.14.13.06.11.06.06a.39.39,0,0,1,.14,0l.29.14s0,0,.07.07a1.28,1.28,0,0,1,.06.13s.15.36.15.36l.08.12a.57.57,0,0,0,.07.13l.1.11.21.07a.26.26,0,0,0,.09,0,.42.42,0,0,1,.2.06s0,.07.09.16.3.27.29.29a3.3,3.3,0,0,0,.25.23,1.35,1.35,0,0,1,.19.24l.14.15s0,.16,0,.19,0,.14,0,.17a.91.91,0,0,0,.05.12l.14.1a.48.48,0,0,0,0,.12l.09.17.22.15a1.12,1.12,0,0,0,.21.08l.32-.16s0-.09.1-.13a2.53,2.53,0,0,1,.49-.32,1.08,1.08,0,0,0,.42-.24c.07-.07.09-.12.14-.17s.18-.09.22-.12,0-.07.06-.1a.79.79,0,0,0,.21-.09c.06,0,0-.07.17-.11s.28,0,.29-.1,0-.07,0-.15a.28.28,0,0,1,.08-.22,3.23,3.23,0,0,1,.37-.25c.06,0,.17,0,.22-.09s.06,0,0-.14,0-.1.06-.16.19-.14.2-.24,0-.11,0-.17a1.7,1.7,0,0,1,.16-.14c.12-.09.16-.13.15-.19s-.11-.13-.08-.18a.42.42,0,0,1,.15-.17c.06,0,.06-.08.07-.21a.79.79,0,0,1,.09-.27.21.21,0,0,0-.05-.26c-.1-.11-.13-.25-.23-.28s-.13-.09-.27-.13a2.34,2.34,0,0,0-.3-.1.84.84,0,0,1-.28-.08,1.88,1.88,0,0,1-.27-.13c-.06,0-.07-.2-.08-.26s0-.18,0-.22-.1-.14-.12-.09a.42.42,0,0,0,0,.15,1.87,1.87,0,0,1-.09.28,1.71,1.71,0,0,1-.11.26c0,.07,0,0-.15.17s-.13.2-.2.25a1.49,1.49,0,0,1-.34.14c-.05,0-.26.11-.37,0s-.14-.13-.21-.21-.15-.18-.24-.27-.24-.08-.31-.19-.09-.18-.17-.23a1.34,1.34,0,0,1-.29-.15c-.06-.07,0-.06-.08-.19s-.14-.12-.2-.25-.14-.12-.07-.17a.58.58,0,0,0,.2-.17c0-.08.07-.17.19-.14s0,0,.17.08.17,0,.25.12,0,.09.1.19,0,.08.21.23.09.17.21.15a.47.47,0,0,0,.19-.08.84.84,0,0,1,.31,0,.84.84,0,0,0,.35.11c.15,0,.16,0,.23,0a.73.73,0,0,0,.23-.18.24.24,0,0,1,.23-.09.49.49,0,0,1,.26.14c.06.07.09.16.22.2a1.12,1.12,0,0,0,.41,0c.13,0,.16-.08.29,0a.71.71,0,0,0,.44,0l.33-.11.1,0a.43.43,0,0,1,.12-.05l.32-.12a.8.8,0,0,1,.22,0,.74.74,0,0,0,.23-.07c.08,0,.11-.09.17,0s.18.13.23.18a.66.66,0,0,0,.36.12s-.1,0,.14,0,.22.07.3.05.11,0,.09,0-.12.05,0,.11.2.1.26.09a.55.55,0,0,0,.21-.09c.06,0,.05-.11.07-.11s0,.17,0,.21-.17.1-.22.15-.18.06-.11.12a.46.46,0,0,0,.22.11c.09,0,.14,0,.28.17a.31.31,0,0,0,.42.12c.14-.07.11,0,.17-.16s.09-.11,0-.21-.14-.14,0-.23a.87.87,0,0,0,.17-.2.11.11,0,0,1,0,.09c0,.06-.07.12,0,.2s.13.17.14.2a.79.79,0,0,1,.09.16,1.52,1.52,0,0,1,0,.26.53.53,0,0,0,.15.4c.16.16.26.25.29.34s0,.22.06.28.19.2.22.25a1.43,1.43,0,0,0,.14.2c0,.07.1.08.18.17a.7.7,0,0,1,.13.17s.09.08.14.12a.39.39,0,0,1,.12.18.45.45,0,0,0,.15.37,1.73,1.73,0,0,0,.31.25.48.48,0,0,1,.09.16l.08.1.17.23a.21.21,0,0,1,.05.07l.08.23a1.78,1.78,0,0,0,.26.29s.05.1.11.09.1-.1.18-.14.15-.06.11-.16-.06-.06,0-.14a1.08,1.08,0,0,1,.12-.12s0-.05,0-.15-.06-.15.05-.2.16-.13.15-.19a.48.48,0,0,0-.1-.21c-.08-.1-.19-.17-.13-.24a.45.45,0,0,0,.06-.31c0-.11-.09-.24-.14-.45a1,1,0,0,1,0-.35,1.37,1.37,0,0,1,0-.36.59.59,0,0,1,.27-.4c.2-.13.11-.15.21-.34a1.89,1.89,0,0,0,.11-.29,1.83,1.83,0,0,1,.11-.32.5.5,0,0,1,.2-.22,1.07,1.07,0,0,0,.23-.18,1.87,1.87,0,0,0,.1-.28c0-.09.14-.11.13-.2S421,208,421,208s0,0,.09-.14.19-.41.21-.41a1.4,1.4,0,0,1,.21.2s.1.17.13.08,0-.09,0-.11,0-.05.13,0,.06.08.19,0,.1-.07.17-.09a.21.21,0,0,0,.13-.1s.06-.08.1,0,.17.27.2.35-.06.11.14.16l-3.78-15.84Zm2.3-3c-.08,0-.1-.05-.15,0m-34.86,8.16a.44.44,0,0,1-.13-.1.53.53,0,0,1-.08-.13.51.51,0,0,0-.1-.16c-.06-.07-.07-.1-.14-.12a.52.52,0,0,1-.13-.06l-.24,0a1.32,1.32,0,0,0-.09.19.89.89,0,0,0,0,.16s.09.08,0,.11-.23-.07-.29-.06-.13.12-.13.12.1,0,0,0-.06,0-.19,0l-.31.15s-.12,0-.17.09-.1.06-.1.11a.32.32,0,0,0,.09.19s0,.09.14.07.14,0,.18,0,.07-.15.1-.15,0-.07.06,0a.83.83,0,0,0,.14.17l-.17.12-.08.05s0,0-.11.08-.09,0-.23,0-.13,0-.27,0-.28.07-.29.1-.26.05-.26.05-.09,0-.1,0a.17.17,0,0,1-.11.12.24.24,0,0,0-.19.13.13.13,0,0,0,0,.16l.16.13a1.3,1.3,0,0,0,.17.1c.08,0,.17.11.23.11s0,0,.1,0,.17-.15.25-.14a.91.91,0,0,0,.28,0,.15.15,0,0,1,.17.13.22.22,0,0,1-.2.08h-.25a.93.93,0,0,0-.18,0s-.11.09-.07.12.2,0,.09.05,0,.06-.12.07a.33.33,0,0,1-.25,0,.22.22,0,0,0-.18,0c-.06,0-.16,0-.14,0s.11.14.17.17.05.08.11.07a.6.6,0,0,0,.14,0s.07,0,.11,0a.38.38,0,0,0,.22,0l.17-.09s0,.18-.12.21l-.22,0s-.11,0-.13,0-.13.14-.12.19.08.11.11.11a1,1,0,0,1,.19.14l.21.13a.48.48,0,0,0,.2.08c.09,0,.07,0,.06-.09s-.11-.15-.08-.15a.74.74,0,0,1,.19.07c.07,0,.17.07.21-.06s0-.2.08-.2a.22.22,0,0,1,.16.12s.09,0,.12-.06.05-.16.1-.13.07.19.11.23a.49.49,0,0,0,.24,0,.21.21,0,0,1,.17.05c.1.07.19.09.25.18a.94.94,0,0,1,.11.19,2.11,2.11,0,0,1,.08.28.43.43,0,0,0,.11.26c.05,0,.12,0,.22.07s.08.14.09.18,0,0,0,.07l.11.06a.08.08,0,0,1,0,.07.63.63,0,0,0,0,.12s0,.11.05.16.11.07.12.06,0,.11,0,.19a.18.18,0,0,1,0,.14l0,.11a2.52,2.52,0,0,0-.09.24.31.31,0,0,0,.05.14s0,.06,0,.14.08.15.26,0,0-.19,0-.29a.2.2,0,0,1,0-.18s.08.14.09.17-.07.08.09.13.15,0,.16.06,0,.08-.05.12.08.17.1.18,0,.11,0,.11,0,.13-.06.15a.31.31,0,0,1-.18,0,1,1,0,0,1-.24-.06c-.06,0-.23,0-.21,0s.11.06.18.08.15,0,.2.05.1.13.12.13a.45.45,0,0,0,.29-.06c.12-.09.13-.19.18-.12a1,1,0,0,1,.13.22s-.21.2-.23.23-.19.24-.14.29.09.09,0,.16,0,0-.09.14a.26.26,0,0,1-.15.19c-.09.05-.19,0-.2.07s.07.16.11.15l.18,0a2,2,0,0,1-.3.21c-.1,0-.2,0-.09.08a.33.33,0,0,0,.28,0s.14-.08.16,0,.07.1-.06.15-.3.05-.33.07-.1,0-.1.05.35,0,.4,0,.24,0,.13,0a3.3,3.3,0,0,0-.39.22.71.71,0,0,0-.12.17s-.08.11,0,.18.11.1.16,0,0-.17.07-.21.15-.06.15,0a.86.86,0,0,1-.07.17s-.07.06,0,.09.1,0,.09.11-.06.14-.06.2a.81.81,0,0,0,0,.2c0,.05.17-.12.24-.13s.24.06.12.12,0,.17,0,.21-.12.2-.15.21l-.12,0,.17.27a.15.15,0,0,0,.07.12c.08,0,.14,0,.15,0s-.05.07-.07.16-.08.25,0,.27a1,1,0,0,0,.2,0,.71.71,0,0,1,.16.12h.06s0,0,0,0,0,.08.07.12a.41.41,0,0,1,.13.11s.09,0,.12,0,.09.07.14.05.07,0,.17,0,0-.08.13-.12.12,0,.13,0a.09.09,0,0,1,0,.12s-.09.06-.09.09.09.08.13.14.12.11.14.1,0-.15,0-.15l.12.16s0,.09.05.1.07.08.13,0,.05-.14.14-.09.11.22.13,0a1.17,1.17,0,0,0,0-.39.24.24,0,0,0,.19-.16.16.16,0,0,0,0-.22.56.56,0,0,0,.05-.14c0-.09.15-.19,0-.26s-.17-.05-.15-.12.15-.11.17-.07,0,.17.1.07.11-.13.09-.21-.08-.06-.08-.08.06,0,.08-.12,0-.1,0-.13.15,0,.14-.08,0-.11,0-.15-.05-.14,0-.15,0,.05.05,0,.11-.05.08-.16a.4.4,0,0,0-.08-.17s-.11,0,0-.08.14-.07.2-.14,0-.13,0-.14.36,0,.36,0-.07-.15,0-.19.08-.06.1-.11,0-.05.1-.13.18-.17.21-.14-.14.16-.16.21,0,.09-.05.13,0,.09,0,.14.09.08.11.08,0,0,.08-.11,0-.1.07-.12.18-.09.19,0,0,.1,0,.09l.13,0a.15.15,0,0,0,0-.12.09.09,0,0,1,0-.1s0,.08.14,0a1.3,1.3,0,0,0,.27-.23.78.78,0,0,0,.07-.14,2.16,2.16,0,0,0,0-.27s0-.07.1-.12A.51.51,0,0,0,382,197a.46.46,0,0,0,0-.22c0-.06,0-.16,0-.22s0,0,.06,0,0,.09,0,.13,0,.14,0,.13l.13,0a.16.16,0,0,1,.09,0c.07,0,.2,0,.23,0a1.1,1.1,0,0,0,.12-.14.46.46,0,0,1,.16,0c.11,0,.12,0,.19-.09a.73.73,0,0,1,.22-.09s.07-.08.22-.15a.91.91,0,0,0,.22-.14.35.35,0,0,0,.13-.17c0-.06,0,0,.06-.12s.06-.09.12-.12,0-.15.19-.19.19,0,.21-.07,0-.09-.06-.08l-.21.06a.38.38,0,0,1-.21,0c-.12,0-.16-.11-.22,0s0,.06-.09.1a.49.49,0,0,1-.19.06c-.11,0,0,0-.17,0a1.12,1.12,0,0,1-.25.08h-.09a.87.87,0,0,1,.16-.1l.26-.13s.09,0,.07,0-.1,0-.23,0a.47.47,0,0,1-.25,0s-.09-.07,0-.13a.42.42,0,0,1,.14-.09s0,0,0-.08.17-.07.23-.08.1,0,.14,0,.15,0,.06-.09a.35.35,0,0,0-.18-.07l-.22,0a.47.47,0,0,1-.13-.06c-.06,0-.11,0-.14-.07s-.08-.12,0-.08l.23.06a.37.37,0,0,0,.21,0c.09,0,.16-.06.2,0l.07.07s.11.15.15.14.19,0,.14.09a.16.16,0,0,0,0,.19s0,.06.09.09.07.1.13.08.06-.07.07-.12,0-.07,0-.09a.19.19,0,0,1,.17,0s0,0,.05.06.13.1.16,0,.07-.1.07-.18a.16.16,0,0,0-.06-.14s-.09,0-.07-.09a.56.56,0,0,0,0-.14.49.49,0,0,0-.19-.17s-.12-.06-.18,0-.29-.17-.37-.14-.08.12-.15,0,0-.15-.1-.13a.44.44,0,0,1-.15,0c-.06,0-.1,0-.13,0s-.06-.07,0-.12.12,0,.07-.08a1.37,1.37,0,0,0-.31-.1s-.1-.06,0-.08l.11,0s0-.08,0-.09,0,0,0,0,0,.07.15.1.13.1.2.06,0-.09,0-.12a.07.07,0,0,1,.08,0s.09,0,.08,0,0-.13-.11-.13-.11,0-.11,0a1,1,0,0,1,0-.2.69.69,0,0,0,.18.12.73.73,0,0,0,.33,0s0,0,.13,0,.07,0,.06.07-.16.1,0,.08.2,0,.25,0l.21-.09s0,0,.07-.06.08-.11,0-.18a.27.27,0,0,0-.29-.12c-.13,0-.18.07-.22,0s0-.12.06-.17.06-.11.14-.13,0-.08.13,0,.11.08.16.09.13.05.18.05a.19.19,0,0,0,.14-.05s.09-.09,0-.14a.21.21,0,0,0-.19,0,.66.66,0,0,1-.23,0s-.13,0-.16,0a.25.25,0,0,0-.09-.15c-.05-.06-.14-.06,0-.06s.09,0,.21,0,.2,0,.19,0-.13-.15-.15-.2a.67.67,0,0,1-.08-.22c0-.06-.17,0-.2-.05s-.16,0-.19-.12l-.06-.17h.21c.06,0,.17,0,.15-.07a1.42,1.42,0,0,0-.28-.19l.05,0a.23.23,0,0,1,.11,0c.06,0-.06,0,.09,0a1.9,1.9,0,0,1,.29.15h.21c.09,0,.11,0,.12,0s.07-.06,0-.16-.08-.16-.14-.15a.8.8,0,0,0-.17.08s-.08,0-.14,0,0,0-.11-.1-.08-.05-.06-.13,0-.09.07-.07.14,0,.16.06.18.07.14,0,0-.1-.18-.2-.2-.14-.26-.13-.14-.08-.08-.2,0-.17.05-.22.17,0,.19-.13a.86.86,0,0,1,.22-.32c.06-.05.25.08.19-.08s0-.26-.13-.26-.21,0-.26,0-.11-.05-.08-.09,0,0,.2,0,.14,0,.19,0,.27-.11,0-.11-.31,0-.16,0a1,1,0,0,1,.32-.07c.14,0,.17,0,.26,0s.2-.06.16-.18a.22.22,0,0,1,.18-.27c.14,0,.22-.08.19-.14s.11-.12-.2-.12a2,2,0,0,0-.41,0l-.31.06c-.09,0-.09,0-.13,0a.56.56,0,0,0-.07.2c0,.07.11.17-.07.08s-.11-.1-.21-.09l-.16,0s-.17-.09-.18-.14,0,0-.06.09,0,.08-.06.14a.26.26,0,0,1-.07.12s-.05,0-.08.09.06,0-.05.1-.13,0-.13.06a.74.74,0,0,1,0,.24.4.4,0,0,1-.13.07c-.06,0-.09,0,0-.18a1.24,1.24,0,0,0,.11-.3c0-.06.06-.13.07-.18a.31.31,0,0,1,.11-.15s.15-.07.15-.09-.15-.11-.19-.14-.07-.11-.17-.09a.94.94,0,0,0-.24,0,.17.17,0,0,0-.06.18c0,.08.07.24,0,.26l-.36.1s-.12,0-.14,0a1.47,1.47,0,0,1-.11.12s-.13,0-.08-.08a1.34,1.34,0,0,1,.23-.25c.08-.08.12-.11.12-.15s0-.08,0-.08a.9.9,0,0,0-.25.07.28.28,0,0,1-.16.15c-.08,0-.07,0-.23,0a1.42,1.42,0,0,0-.27.05.43.43,0,0,0-.18.14s-.26.09-.3.16-.09.08-.09,0,0-.11,0-.16.13-.08.19-.15.13-.13.13-.16-.12-.14-.1-.15l.11-.05s0,0,.08,0,0,0,.14,0a1.47,1.47,0,0,0,.31,0l.2,0c.06,0,0,0,.15-.06l.26-.07.17,0,.28-.06c.06,0,.11,0,.08,0s0,0,0-.06.07,0,.07-.08-.09-.07-.18,0-.12,0-.14,0a.42.42,0,0,1,0-.24s-.06-.08-.1-.05-.07.15-.21.1,0-.11-.25-.05l-.42.09a.8.8,0,0,0-.32.14c0,.05,0,.07-.1.1a2.09,2.09,0,0,0-.43.13c-.11.07,0,.15-.11.19s0,.11-.11,0a.11.11,0,0,0-.16,0s0-.1.06-.14.22,0,.22-.1,0,0,0-.08-.07-.06,0-.08-.07,0,.19,0,.21,0,.27-.06a1.41,1.41,0,0,1,.27-.14s0,0,.23,0l.35-.12c.18-.07.15-.06.22-.07s.11-.14-.07-.1a1.46,1.46,0,0,1-.37.05c-.2,0-.14,0-.34,0l-.22.07s0,.06-.16,0a3.47,3.47,0,0,0-.38,0s-.07.11-.17.08,0,0-.16,0-.23,0-.31.11-.05.16-.22.13-.24,0-.26,0-.06.17-.06.17a.42.42,0,0,1,.13.09s0,.1,0,.12-.25.07-.33,0-.31,0-.34-.11,0-.12-.07-.18-.13,0-.18,0-.2,0-.2.07.06.14.07.15a.09.09,0,0,1-.14,0c-.07-.06-.13,0-.12,0s0,.06,0,.08.09,0,.13,0-.08.07-.08.09a.12.12,0,0,0,.14.09c.12,0,.26-.05.32,0l.26,0,.13,0s.15.1.13.13,0,.07-.12,0a.4.4,0,0,0-.17-.07c-.09,0-.09,0-.15,0a1,1,0,0,0-.19,0l-.18.09c-.05,0-.13.06-.12.08l.05.15a.82.82,0,0,1,0,.2s-.28-.3-.32-.3-.12-.1-.21-.13-.08,0-.28,0-.2-.06-.25-.1,0-.11-.17-.06-.13.1-.11.17a1.37,1.37,0,0,1,.07.28.28.28,0,0,1-.15.08,1.89,1.89,0,0,1-.23,0c-.07,0-.25,0-.28,0s-.17.09-.18.11,0,0-.09-.13,0-.17-.13-.17,0-.07-.22,0a.55.55,0,0,1-.34.06l-.31,0c-.06,0-.13,0-.12,0s.1.09.12.12a.42.42,0,0,0,.07.1s0,0,.09.16l.09.14s.14.1.08.12A.07.07,0,0,1,375.95,189.79Zm-3.27-1.28a.29.29,0,0,1-.19,0c-.07-.05-.08-.1-.15-.07l-.22.09a.7.7,0,0,0,.08.16s.13,0,0,.07-.12.08-.22,0-.11-.14-.2-.16-.14,0-.2,0,0,.11,0,.14,0,.05-.14.05-.17,0-.18,0-.14.13-.08.19.13.06,0,.1A.22.22,0,0,1,371,189a1,1,0,0,0-.2-.15,2.47,2.47,0,0,0-.24-.1.73.73,0,0,0-.29-.06c-.08,0-.15,0-.2.08s0,.1,0,.14a.1.1,0,0,0,.08.06s.06,0,0,.05,0,0,0,.05a.16.16,0,0,1-.17,0s0,0-.09-.08a.66.66,0,0,0-.24-.06.22.22,0,0,0-.18,0c-.09,0-.16,0-.2,0l-.09,0s0,.06,0,.08.05,0,0,0a1.92,1.92,0,0,1-.21,0s-.13,0-.13.08,0,.06,0,.09.06.05.12,0a.37.37,0,0,1,.15,0l.08,0s0,0,0,.05,0,0,0,0a.18.18,0,0,1,0,.11.19.19,0,0,1,0,0s0,.07.06.08h.16s0,0,.06,0h.05c.14,0,.16,0,.19,0a.59.59,0,0,0,.17,0,.25.25,0,0,1,.14,0,1.59,1.59,0,0,1-.19.12.26.26,0,0,1-.14,0,.9.9,0,0,0-.18,0l-.13,0s0,.1,0,.12.06,0,.2,0,0,0,.18,0,.17,0,.2,0,0-.08.08-.16.08-.11.1-.08,0,.09,0,.12-.07.17,0,.18.12-.15.16-.17l.23-.14c.1-.05.13-.06.12,0s-.19.19-.23.21-.06.09,0,.09h.16s0,0,.1.05.09,0,.11.06-.07,0,0,.09.14,0,.22,0,.14-.06.27-.13.15-.09.17-.13l.08-.11a.35.35,0,0,0,.06-.12c0-.07,0-.15.05-.12s0,.1,0,.1l.1,0c.06,0,.11-.11.08,0s-.08.1-.09.16,0,.05-.1.15a1.21,1.21,0,0,0-.15.18s-.08.06-.07.12.19,0,0,.09-.31,0-.33.05a.45.45,0,0,0-.07.16.25.25,0,0,0,0,.12s.11,0,0,0-.31,0-.34,0l-.1-.13c-.06-.08,0-.05-.1-.13s-.17-.07-.19-.07l-.19-.07s-.13-.09-.15-.05a.77.77,0,0,0,0,.22.18.18,0,0,1,0,.07s.1.15.12.17l.12.1s.08,0,.09.08a.09.09,0,0,1,0,.08s-.07.07,0,.09l.13.08a.74.74,0,0,0,.22,0s.06,0,0,0,0,0-.06,0,0,.08,0,.08-.21-.15-.26-.17l-.22-.07a.52.52,0,0,0-.19,0,.81.81,0,0,0-.26.08s-.09.1-.11.14-.06,0-.07.08a.21.21,0,0,0,0,.16s.1.06.15,0,0,0,.06,0,0,0,.13.08a.12.12,0,0,0,.16-.09,1,1,0,0,1,.1-.15s0,.07,0,.11a.84.84,0,0,1-.05.12s0,0-.06.12-.07.15,0,.17l.1,0,.08,0c.06,0,.07,0,.11,0s.06-.11.08-.12,0,0,.09,0,0,0,.06.07-.06,0,0,.07a.37.37,0,0,0,.06.12s0,.08,0,.09h-.13l-.22,0s-.05,0-.1,0,0,0-.07-.06a.6.6,0,0,0-.12-.09s0,0-.09-.07a.67.67,0,0,1-.23-.12s-.22-.15-.28-.11l-.21.16s0,.07.06.11-.07.05.06.06.12,0,.16,0,0,.05,0,.11-.17,0-.2,0,0,0-.08,0l-.16.06s-.1,0-.13,0-.11,0-.13,0-.08.11,0,.17.05.15.1.13.07-.07.09-.1,0,0,0,.07,0,.07.08.08h.07s.13.09.18,0,.07,0,.09,0a1.36,1.36,0,0,0,.13,0s0,0,.09,0,0,.06.07,0a.15.15,0,0,1,.15,0c.06,0,.09.11.15,0s-.05-.05.08-.11.09-.07.14-.05.13.07.16.06a.31.31,0,0,0,.13,0s.06,0,.1,0l0,0c.09.06,0,.06.13.08s.08,0,.11,0,0,.11.12.1a1.17,1.17,0,0,0,.35,0s0,0,.1-.06.11-.07.08-.13,0-.08-.09-.15l-.16-.1a.16.16,0,0,1-.11-.06l-.11-.11s-.09-.06-.12,0-.1.06-.09,0,0,0,0-.07a.15.15,0,0,0,0-.08s-.05-.09,0-.08,0,0,.08.08l.07.08.16,0c.07,0,.12,0,.2,0s.08,0,.14-.07,0,0,.07-.1,0-.1.05-.11a.38.38,0,0,0,.13-.09s.13,0,.21,0,.07,0,.12,0,.08,0,0-.05-.1,0-.06-.06,0-.06.15-.11a2.2,2.2,0,0,0,.25-.09s0,0-.06,0-.13,0-.13,0,.13-.12.13-.12.06,0,0,0-.12,0-.21,0a.17.17,0,0,1-.17,0s0,0,0-.1-.09-.08-.05-.13.06,0,.17,0,.13,0,.16,0,0,0,.14,0,0,0,.13,0,.14-.08.15-.07a1.12,1.12,0,0,0,.35-.11s.13-.08.17-.11,0-.06.1-.1.12,0,.17-.08.06-.14.08-.12a.27.27,0,0,0,.12.06c.08,0,.07.13.11,0s0-.12,0-.18.12-.05.25-.13l.23-.16c.06,0,.19-.09.19-.11s0-.08-.17-.05-.2,0-.3.07-.1.1-.19.14-.16.1-.18.07-.18,0,0-.09a1.21,1.21,0,0,0,.23-.18c.05-.06,0-.07.1-.1a.78.78,0,0,1,.23,0h.19c.11,0,.2,0,.24,0s0,0,.07-.07.11,0,.18,0,0,.06.13,0a.36.36,0,0,0,.13-.11A1.43,1.43,0,0,1,375,189c.05,0,.08-.18,0-.21s0,0-.16,0-.32-.06-.34-.07,0,0-.06,0a.78.78,0,0,1-.19.12c-.08,0,0,.09-.1.06s-.18,0-.1-.08.23-.08.2-.11a.15.15,0,0,0-.18,0c-.09,0-.06.08-.14,0s-.06-.06-.16-.08l-.23,0-.17,0c-.09,0-.16-.05-.2-.05s-.1-.08-.12,0a.36.36,0,0,0,0,.16s0,.09,0,.12l0,.11a.09.09,0,0,1-.09-.06c0-.06-.08-.14-.1-.18a.35.35,0,0,0-.11-.1S372.75,188.51,372.68,188.51Zm-.34,12.15a.32.32,0,0,0,.1.08l.16.08.13,0,.17.06.14,0s0,0,.1,0,.08-.07.07-.12a.22.22,0,0,0-.07-.12c-.06-.07,0,0-.13-.1l-.15-.09a.57.57,0,0,1-.14-.1s-.06-.06-.08-.11,0-.08,0-.09,0,0,0,0l.22,0c.06,0,0-.06.08,0a1.19,1.19,0,0,0,.23.14s0,0,.08,0a1,1,0,0,1,.17.06l.08.05s.06-.11.07-.11,0-.06,0-.1,0-.11,0-.11,0,0,0,0,.06.08.07,0a.73.73,0,0,0,0-.33,1.39,1.39,0,0,0-.13-.26,1.5,1.5,0,0,0-.15-.24c-.06-.07,0,0-.07,0s-.09-.05-.12-.09-.1,0-.13-.1,0-.07-.05-.12l-.09-.08a0,0,0,0,1,0-.08c.06,0,.05,0,.1,0s.06,0,.05-.09,0-.11,0-.11-.17,0-.05-.07l.18-.11.09,0s0,0,.06.05.13.08.19.09h.1s-.06.08-.06.12,0,.06,0,.12a.81.81,0,0,0,.16.17.56.56,0,0,1,.13.12.32.32,0,0,1,.06.09c0,.06,0,.09.08.06s.08,0,.08-.08,0,0,0-.09,0-.09,0-.14,0-.13,0-.13.07,0,.11.05.05-.09.08-.13.05,0,.12-.06,0-.2,0-.23-.13-.09,0-.13.19-.09.18-.12.13-.13.12-.16-.06-.13-.14-.13a.27.27,0,0,0-.16,0s-.18,0-.15.11,0,0-.11,0-.12-.15-.15-.2,0-.09-.09-.12a1,1,0,0,1-.15-.06l-.09-.08s0,0-.06,0l-.12,0s-.15-.12-.13-.13.09-.06,0-.1a.56.56,0,0,1-.18-.12s-.06,0-.06-.08,0-.09.05-.1a1.18,1.18,0,0,0,.25-.05s0-.06-.07-.07l-.15,0s-.1,0,0-.08.08-.09.17-.13.18,0,.16-.08,0-.09-.09-.13-.14-.19-.17-.12-.07.16-.13.19,0-.1-.09-.1-.07.1-.1.11-.09-.14-.11-.13,0,0,0,0a.76.76,0,0,1,.18-.06.11.11,0,0,0,.07,0s.12,0,.06-.08l-.09-.08s-.05-.07-.17,0a.62.62,0,0,1-.21.08s-.11,0-.08-.06.12-.06.06-.08-.08,0-.15,0l-.14.06-.16.06s0,.07-.06,0a.13.13,0,0,1,0-.17s.05-.06.07-.06a.22.22,0,0,0,.19,0c.08-.07.08-.09.09-.14s0-.1-.11-.1a.35.35,0,0,1-.21,0c-.12,0-.14-.07-.18,0a.29.29,0,0,0-.1.15c0,.06,0,.07-.08.07s-.07,0-.1-.07-.09-.09-.1-.09,0,0-.05-.05-.05.05-.08,0-.12,0-.08-.08a.25.25,0,0,0,.07-.15s-.2-.1-.2-.1a.44.44,0,0,1-.05.09s-.09-.08-.06-.13a.49.49,0,0,0,0-.21.38.38,0,0,1-.24,0,.2.2,0,0,0-.22,0s-.1,0-.11.07a.27.27,0,0,0,.06.14.16.16,0,0,1-.07,0c-.06,0-.07,0-.08,0s0,.16-.08.07-.14-.06-.12-.15,0-.15,0-.19-.06,0-.11.16a.3.3,0,0,1-.17.18s-.12.08-.1,0,0-.13,0-.17-.05,0,0-.09.14-.06.12-.17-.05-.19-.07-.25.06-.24,0-.28-.24-.12-.32-.07a.45.45,0,0,0-.12.14s-.15,0-.2.06-.12,0-.11.1l0,.14s0,.06-.11,0-.22,0-.18.06.05.18.08.24.09.18.09.18a.49.49,0,0,0-.18-.06c-.05,0-.06.11,0,.17l.09.19s0-.11,0,.06,0,.15,0,.2,0,.07-.11,0-.06-.08-.14-.06,0-.18,0-.24,0,0,.05-.19,0-.16,0-.27-.09-.06-.09-.21-.06-.27.13-.37.21-.11.2-.13.18-.13,0-.14a2,2,0,0,0-.46.07,1.28,1.28,0,0,0-.28.16s-.14.1-.15.15a1.11,1.11,0,0,0,0,.22c0,.06-.05,0-.1,0s0-.16-.15.11,0,.26,0,.29,0,.08,0,.13,0,.1,0,.14a.25.25,0,0,0,.1.18.46.46,0,0,0,.19.09c.09,0,.21,0,.19.09s0,.14-.06.13-.07,0-.17-.08a.37.37,0,0,0-.19-.06s-.08,0-.1,0,.07.17.11.19.08.13.09.15,0,0,0,.06,0,.14.06.09.08-.08.15-.14,0-.09.07-.06,0,0,.12.1.09,0,.16.06l.19.15a.52.52,0,0,1,.31,0c.15.06.15,0,.31.09s.14.11.24.11a.15.15,0,0,0,.13-.08s0,0,0,0,.1,0,.2.09,0,.05.13.08.28,0,.21-.14a1.39,1.39,0,0,0-.12-.18.34.34,0,0,1,.12-.17c.07,0,.1-.12.12-.12s0,.06,0,.16.05.2.1.21.12.09.12.09l.15.21a.5.5,0,0,0,.1.09l0,.08c0,.07,0,.13,0,.15a.49.49,0,0,0-.06.13s0,.09.1,0a1.47,1.47,0,0,1,.19-.14c.07,0,.08-.1.11-.07s.07.16.09.19,0,0,.13-.06.1-.15.15-.05.06.06.07.13a.61.61,0,0,1,0,.13c0,.14,0,.26,0,.31a.57.57,0,0,1,0,.2l-.13.26a1.1,1.1,0,0,1-.24.27s0,.1,0,.22.17.32,0,.41-.32.15-.44.11l-.23-.08a3.4,3.4,0,0,0-.43.14s.08.09,0,.13-.12.05-.11.12a.21.21,0,0,0,.11.19.35.35,0,0,0,.2.07.64.64,0,0,0,.2,0,.51.51,0,0,0,.09-.12.25.25,0,0,0,0-.21l-.06-.09a1,1,0,0,1,.21,0s0,0,0,.12.14.28.21.23.06-.24.06-.24.21.1.21.16-.06,0,0,.11a.94.94,0,0,0,.09.27c.07.14.23.08.24.12a.8.8,0,0,0,.08.13.58.58,0,0,0,0,.07.36.36,0,0,0,.17.16c.08,0,.14-.05.18,0S372.33,200.67,372.33,200.67ZM369,193c-.06-.06-.09,0-.18,0s0,0-.17,0-.22,0-.23,0l-.06-.16a.89.89,0,0,0-.22,0s-.1,0-.13,0a.11.11,0,0,1,0-.1l-.17,0c-.06,0,0-.08,0-.15s.06,0,.13-.07.09-.07.09-.16,0,0-.06-.06,0-.08-.1-.12,0,0-.14,0-.11,0-.15,0a.58.58,0,0,0-.12.07,1,1,0,0,0,0-.16c0-.08,0-.09-.08-.1s-.05-.08-.06-.11a1.34,1.34,0,0,0-.08-.15.16.16,0,0,1-.07.07s-.17,0-.24,0-.05,0-.17.12,0,.17,0,.22.08.22.08.22.08.14.16.16l.28.08a.33.33,0,0,1,.14.29.25.25,0,0,1-.1.21s.09.15.2.31.07,0,.2,0,0,0,.06.13a.44.44,0,0,0,.21.22c.12.07.23-.24.26-.3a.22.22,0,0,1,.24,0s-.14.23-.14.27.25-.07.25-.07l.22.13a.2.2,0,0,0,.24,0,.81.81,0,0,0,.24.05c.11,0,.17-.1.2-.08a.5.5,0,0,1,.18.1c.1.08.49-.09.51-.1a2.39,2.39,0,0,0,.29-.32,1.15,1.15,0,0,1,.06-.1s-.06-.1-.12-.15-.35-.13-.38-.19,0,0-.1-.07-.15,0-.27.06a1.66,1.66,0,0,1-.24.11l-.3.1A.68.68,0,0,1,369,193Zm.4-2.78s0-.06-.11-.14a2.22,2.22,0,0,0-.24-.13,1.74,1.74,0,0,1-.21,0,.56.56,0,0,1-.13-.1s-.15-.08-.19-.2,0-.18-.14-.25l-.23-.13a.17.17,0,0,0-.14,0c-.07,0-.08,0-.11.1s-.22.17-.22.17,0,0,0,.08a.46.46,0,0,1,.11.17s-.16.13-.16.13l-.18,0a.21.21,0,0,0-.08.11.2.2,0,0,0,.08.16h.1a1,1,0,0,1-.09.15s-.14.07,0,.1a.46.46,0,0,0,.3,0,2.75,2.75,0,0,0,.31-.11c.09-.05.14-.06.16,0s0,.16-.07.15,0,.06.06.06.25-.08.08,0-.3.13-.38.08-.09-.1-.14-.06-.14.11-.14.16.17.06.21.08.15.15.15.15,0,0,0,0a.78.78,0,0,0,.3.13l.13,0s-.11.07.07,0,.2-.09.2-.09-.07,0,0,0a.56.56,0,0,1,.16.07s.07-.21.1-.25a.13.13,0,0,1,.15-.07c.1,0,.07,0,.15-.06l.08-.08s.26,0,.21-.09a.29.29,0,0,0-.26-.14S369.43,190.21,369.43,190.21Zm-4.6,6.05s0-.23-.16-.25-.15,0-.2,0-.1-.09-.17-.14-.12,0-.17-.08-.09,0-.08-.12,0-.15.06-.18-.06-.2,0-.28a.74.74,0,0,0,.05-.25.28.28,0,0,0,0-.13,1,1,0,0,0-.12-.24.69.69,0,0,0-.13-.17c-.11-.11-.13-.13-.21-.16s-.14-.09-.17,0a2.24,2.24,0,0,0-.08.23,1.11,1.11,0,0,0,0,.19l0,.12c0,.12.12.09,0,.12a1.52,1.52,0,0,0-.25.11.41.41,0,0,1-.05-.25c0-.06,0-.22,0-.28s-.1-.26-.16-.26-.18,0-.21,0a.11.11,0,0,0,0,.11s.05.12.06.15,0,.15,0,.16-.07,0-.16,0a1.43,1.43,0,0,0-.29.12s-.22,0-.08-.06a1.08,1.08,0,0,0,.3-.14s.07-.09,0-.17,0-.14-.15-.13-.19,0-.23,0a.18.18,0,0,1-.19.06c-.06,0-.08,0,0-.08A.24.24,0,0,0,362,194c0-.09-.15-.11-.21-.12a.28.28,0,0,0-.2,0c-.06,0,.11-.05-.14.09s-.14.16-.33.22a1.41,1.41,0,0,0-.32.16c-.16.08-.11.11-.08.17s-.06.13-.12.14-.12,0-.15.05a.31.31,0,0,0,0,.17c0,.07.07.07.16.11s.16.23.33.16a1.26,1.26,0,0,0,.32-.22s.05,0-.05.13l-.2.16a.91.91,0,0,1-.23.12c-.09,0-.15.06-.15.08s0,.16.06.17l.32.08s0,0,.12,0a2,2,0,0,1,.28.09.83.83,0,0,0,.24,0,.55.55,0,0,1,.22.09s-.18.09-.24.09a1.74,1.74,0,0,1-.22-.09c-.08,0,0-.08-.19,0s-.17.09-.32.13a.4.4,0,0,0-.26.17s-.06.06,0,.18.12.16.16.17a.46.46,0,0,0,.14.06c.09,0,.32,0,.33.1s.06.1,0,.19-.08.07,0,.19-.1.14.26.2.41-.09.55-.11a1.21,1.21,0,0,0,.4-.1l.29-.13a1.33,1.33,0,0,0,.18-.07s.07-.16.12-.16,0,0,.16.05a.36.36,0,0,1,.16.15.52.52,0,0,0,.25.16l.14,0a.52.52,0,0,0,.24,0c.13,0,.1,0,.17,0a.13.13,0,0,0,.06-.16.44.44,0,0,1,0-.08s-.05,0-.11,0,0,.17-.06.06-.09-.16-.07-.2-.07-.2.1-.13a.69.69,0,0,0,.34.06s.1-.05.15,0,.13,0,.17-.06A.29.29,0,0,0,364.82,196.27Zm-3.19-2.67s-.07,0-.12-.08a1,1,0,0,0-.15-.25.34.34,0,0,0-.24-.12s-.08,0-.09.09a.41.41,0,0,1,0,.15s-.12,0-.14-.11,0-.14-.06,0a.53.53,0,0,1-.06.19s.1.15,0,.06-.15-.35-.17-.41-.13-.09-.24-.1h-.24c-.11,0-.06,0-.19,0s-.23-.12-.24,0,0,.24,0,.27a.64.64,0,0,1,.09.13.58.58,0,0,1,0,.21c0,.09.11.09,0,.12s-.18,0-.24,0a1.79,1.79,0,0,0-.19.16c0,.05-.08,0-.06.09l0,.09s-.13.13-.16.2,0,0,0,.08-.2.13-.17.17.16.12.19.16a.58.58,0,0,1,.06.11.62.62,0,0,1,.06.28c0,.12-.08.26.06.25a.51.51,0,0,0,.28-.13c.08,0,.09-.1.15-.15s.07-.1.11-.07.12,0,.21-.08.07-.12.15-.17l.25-.16c.07,0,.11-.15.28-.25s.34-.24.45-.29a1.08,1.08,0,0,0,.27-.09,2.15,2.15,0,0,0,.28-.18S361.64,193.59,361.64,193.59Zm1.86-1.16-.26.14a.75.75,0,0,1-.15-.14,1.8,1.8,0,0,1-.09-.17,2,2,0,0,0-.19-.29s0-.11-.13-.1,0,.07-.14,0,0,0-.15-.06-.17,0-.22,0-.12,0-.15.06,0,.13.06.12,0,.08-.1.09-.15,0-.15,0,0,.17.07.16H362a.39.39,0,0,1-.16.13,1,1,0,0,1-.21,0s0,.24,0,.24a.88.88,0,0,0,.22,0s.09-.05.1,0,0,.11.11.1.11,0,.23-.05l.16-.1a.37.37,0,0,1,.1.08c.07.07,0,.09.16.1h.2a.07.07,0,0,1,.06.1.22.22,0,0,1-.2.09.56.56,0,0,0-.17,0,2.15,2.15,0,0,0-.27.06s-.07,0,0,.12.07.12.19.14a1.88,1.88,0,0,0,.32,0,.86.86,0,0,0,.34-.1c.07,0,0-.08.15-.12l.19,0a.54.54,0,0,1,.21,0s.11-.11.16,0,.13.1.22.05.1,0,.25-.19.12-.11.12-.2a.55.55,0,0,0,0-.25c0-.08-.06-.24-.16-.23a.2.2,0,0,0-.16.12s0,.08-.08.09-.13,0-.15-.07,0,0,0-.16,0-.12,0-.2.08-.21,0-.27-.22,0-.26,0l-.25.15s-.07,0,0,.06a.59.59,0,0,0,.15.1s0,0,0,.05,0,0,0,.11a.52.52,0,0,0,0,.19c0,.13.07.17,0,.16A.81.81,0,0,1,363.5,192.44ZM361.66,191s-.29.15-.28.18a.16.16,0,0,1-.14.19c-.14,0-.06-.09-.28,0s-.12.11-.25.12-.27.05-.24.15,0,.19,0,.23,0,.12.08.13a1.12,1.12,0,0,0,.39-.08s-.05,0,.09,0,.12,0,.23,0,.09,0,.14-.08a.9.9,0,0,1,.07-.15s.14-.05.18-.1a.29.29,0,0,0,.07-.17.14.14,0,0,1,.06-.11s0,0,0,.09-.11.11-.1.2.15.26.3.15.09-.16.08-.2.11-.09.14-.09,0-.11,0-.15-.06-.07,0-.09.1,0,.17-.08.15,0,.09-.11a.42.42,0,0,0-.31-.13c-.09,0-.19-.08-.23,0s-.27.07-.3.07Zm1.63.22a.64.64,0,0,1,.19,0,.4.4,0,0,0,.29-.09c.13-.08.07-.07.13-.14l.1-.09c.07-.07,0-.07,0-.14s0,0-.13,0-.18,0-.25,0a1.22,1.22,0,0,0-.3.17A.31.31,0,0,0,363.29,191.18Zm.19-.65a.75.75,0,0,1,.4,0c.17,0,.14,0,.24-.08s.09-.12.09-.12a2.63,2.63,0,0,0-.74.07c-.34.1-.18.18-.18.18A1.26,1.26,0,0,0,363.48,190.53Zm1.7-.11a.28.28,0,0,1,.21.08.42.42,0,0,1,.14.2s-.07,0-.1.05-.06-.06-.11-.07-.12.1-.1.16.12,0,.12,0a1,1,0,0,0,.31-.05c.09,0,.13,0,.24,0a.27.27,0,0,1,.16.07l.21.15a.93.93,0,0,0,.23.14c.17.1.09,0,.06-.11a.6.6,0,0,1,0-.15.51.51,0,0,0,0-.2c0-.07,0,0-.15-.12s0,0-.09-.09,0-.05-.08-.05a.17.17,0,0,0-.12,0s-.1,0-.14,0l-.23-.13-.35-.1C365.22,190.21,365.13,190.43,365.18,190.41Zm1.54.22c-.06.06,0,.08.07.16a1.35,1.35,0,0,0,.1.15c0,.07-.06,0-.11,0s-.07.12-.1.21.1.1.24.12.16-.09.22-.14.22,0,.32-.06.2-.12.11-.25-.05-.1-.18-.13a.6.6,0,0,1-.22,0,.57.57,0,0,1-.2-.12A.29.29,0,0,0,366.72,190.63Zm-.09-.9s-.1.1-.09.12.12.07.13.1,0,.09.08.09a.38.38,0,0,0,.17-.06s0,0,0-.09,0-.09-.06-.12S366.7,189.66,366.63,189.74Zm-.78,2.51c-.07,0,0,0-.07.16s0,0-.07,0-.05.07-.06.15.08,0,.13,0,.1,0,.09.07a.46.46,0,0,0,0,.21c0,.08,0,.1,0,.2s0,.1,0,.13a.76.76,0,0,1,.17.06.18.18,0,0,0,.24-.09c0-.08.07-.12.05-.14s.13-.16.17-.24a.45.45,0,0,0,0-.24c0-.09,0-.07,0-.14a.3.3,0,0,0-.07-.17c-.06-.09-.09-.09-.18-.12l-.22,0A.55.55,0,0,1,365.84,192.25Zm.22-1.09a.27.27,0,0,0-.21,0c-.1,0-.11,0-.12.06a.42.42,0,0,0,0,.1.32.32,0,0,0,.2,0A2.07,2.07,0,0,0,366.06,191.16Zm-1,.06s-.09-.16-.18-.14a.75.75,0,0,1-.2,0s0,0,0,.16a.51.51,0,0,0,.2.18s.08.08.11.08.1-.2.1-.2Zm-.24,1.45a1.48,1.48,0,0,0-.18.1s-.06.16,0,.19.07.12.11.08l.11-.12a.26.26,0,0,0,0-.11S364.86,192.67,364.86,192.67Zm-.48,1.19c-.06,0-.25,0-.28-.05s-.15-.11-.15,0a1.05,1.05,0,0,0,0,.19c0,.06,0,.12.11.15l.26.11c.07,0,.13,0,.16-.08s.06-.17,0-.21Zm1.46.07a.51.51,0,0,1-.14,0,1.41,1.41,0,0,0-.25,0s-.11,0-.12.1-.06.1,0,.18l0,.16s0,0,0,.06.19.18-.06.09-.27-.13-.28-.11-.14.16-.12.19.17.09.18.1,0,0,0,.08.08.16.09.25.18-.07.22,0,0,.11,0,.2,0,.16,0,.18a.4.4,0,0,0,.21,0s0-.17.06-.28,0-.14,0-.14.13.19.13.19.15,0,.18,0,.1-.07.1-.17-.06-.15-.08-.21-.08,0,0-.1.12-.13.05-.18l-.1-.07c-.09-.06-.12-.11-.15,0a.93.93,0,0,1-.09.16s-.11-.07-.06-.13,0-.1.1-.12a3.77,3.77,0,0,0,.49-.23c.1-.07.22,0,.11-.09s-.08-.06-.14-.07-.12-.07-.21-.07S365.82,193.89,365.84,193.92Zm.72-.66s.1,0,.13.08.1.05.13.07a2.81,2.81,0,0,0,.37,0c.14,0,.06-.06.07-.13a.33.33,0,0,0-.07-.22l-.14-.13c-.05,0-.21,0-.23,0A1.24,1.24,0,0,0,366.56,193.27Zm.18.88c0,.06-.05.05-.14.13a.9.9,0,0,0-.14.17s0,.08,0,.13,0,.08,0,.08l.14.17c.09.1,0,.08,0,.1s0,0,0,.13.14,0,.14,0a.71.71,0,0,0,.16-.19c0-.08,0-.08,0-.07s-.14-.17-.05-.15.1,0,.21,0,.13,0,.2.08.06,0,.18,0,0-.08,0-.12,0,0,.13-.07.12,0,.14-.05.16-.12.22-.19.06-.13.11-.18-.11-.09-.13-.1a.58.58,0,0,0-.24,0c-.09,0-.08,0-.18-.09a.17.17,0,0,0-.19,0,.26.26,0,0,1-.16,0l-.21,0c-.08,0-.15.19-.15.19ZM365.2,192s0-.11,0-.1,0,0-.09.07,0,.14,0,.18,0,.09.06.07.1-.11.09-.13A.4.4,0,0,1,365.2,192Zm0,.29c-.05,0-.16.05-.09.09s.06.05.1,0a1.15,1.15,0,0,1,.12-.12s0-.12-.07-.06A.24.24,0,0,0,365.21,192.26Zm0,.25s.16,0,.17,0a.28.28,0,0,1,0-.1s.05-.08,0,0l-.12.09S365.15,192.48,365.2,192.51Zm.77-.5-.16,0s-.11-.08-.11,0a.08.08,0,0,0,.12.08A1.81,1.81,0,0,1,366,192Zm-.49.45a.12.12,0,0,1-.07.15c-.1.06-.23.08-.15.1a.32.32,0,0,0,.19,0s.09,0,.08-.07S365.49,192.47,365.48,192.47Zm3.77,7.34a1,1,0,0,1,0-.17c0-.09,0-.08,0-.15s0-.07-.09-.1-.14,0-.19,0,0,.07-.16,0a.73.73,0,0,1-.17-.12.46.46,0,0,1-.11-.1s-.1,0-.11,0a.45.45,0,0,1,0-.12c0-.07-.08-.14-.12-.12s-.07.12-.07.14,0,0,0,.06-.12.13-.09.18.09.11.07.15l-.13.17s-.09,0-.08.12,0,.16,0,.2a.2.2,0,0,1-.08.12s-.09,0-.11.08,0,.11.09.09l.18,0a.06.06,0,0,1,.09.05.47.47,0,0,1,0,.17.15.15,0,0,0,0,.15.42.42,0,0,0,.13-.08c.08-.06.15-.07.21-.12s0-.05.07-.14.11-.07.1-.13-.07-.12,0-.14.14,0,.22,0,.09.08.08.12,0,.09,0,.07a.17.17,0,0,1,.14,0c.06,0,.06,0,.08.07s-.1.07.06,0l.22-.05c.11,0,.13,0,.13,0a.1.1,0,0,0,0-.14.21.21,0,0,0-.19-.09h-.1s-.06,0-.06,0Zm-.53.8s-.19.09-.2.12-.06.05,0,.09-.06.06,0,.1.12,0,.18,0,0,0,.08-.08,0,.05.14-.07.23-.09.13-.14S368.73,200.54,368.72,200.61Zm.88.11-.08.1a.8.8,0,0,0-.1.24s0,.12,0,.12a.49.49,0,0,0,.19,0,.16.16,0,0,0,.08-.09c0-.07.06-.07,0-.14Zm1.11-3.16a.59.59,0,0,0-.07.13.67.67,0,0,0,0,.13.68.68,0,0,0,0,.12s-.06.12,0,.12a.48.48,0,0,0,.18,0s0,0,.13-.07.11-.05.13-.14.05-.08,0-.15,0-.11-.05-.15S370.79,197.37,370.7,197.57Zm-5.3-.87s0,.16-.14.2l-.17.06s0,.16,0,.15a.2.2,0,0,1,.13,0l.19,0s.11.13.14.14.08,0,.16,0l.13-.05s.14,0,.14-.08,0-.11,0-.16a.49.49,0,0,1-.13-.2c0-.12,0-.16-.08-.19S365.42,196.51,365.4,196.69Zm21.14,1.38c0-.09,0-.08,0-.11a.29.29,0,0,1,.09-.17l.07-.07-.16-.19c-.16-.19,0,0-.11-.07s0,0,0-.06l-.05-.12c0-.06,0,0,0-.06s.06,0,0-.07a0,0,0,0,1,0-.06,2.19,2.19,0,0,0-.25.16s-.08,0-.09,0l-.13-.1c-.08-.06,0,0-.15,0s0,0,0,.07a.47.47,0,0,1,0,.19c0,.07,0,0-.1,0a1.21,1.21,0,0,0-.21-.06s0,.09,0,.12a.09.09,0,0,1-.06.09s-.06,0-.06,0l-.17-.1a.22.22,0,0,0-.08,0s0,0,0,.12,0,.05,0,0-.09-.08-.1-.09-.1,0-.1,0a.85.85,0,0,1,0,.18c0,.13,0,.09,0,.12s0,.15,0,.15a.44.44,0,0,1-.16-.07c-.06,0-.07,0-.08-.05a.05.05,0,0,0-.06,0s0-.12,0-.16,0-.17-.08-.2a.5.5,0,0,0-.28,0c-.06,0,0,0,0,.06s.06.08.08.08.07.14.07.14,0,0-.08,0l-.14-.12a.12.12,0,0,0-.14,0s0,.1,0,.12.06.09,0,.1a1.07,1.07,0,0,0-.21.11c-.1.07.08.07.08.07a.47.47,0,0,0,.24,0c.08-.05,0,0,.1-.05s.06,0,.17,0,0,0,0,0,.09.1.07.16,0,0-.13.06-.14,0-.18,0a.7.7,0,0,0-.18.14c-.05.06.08,0,.08,0l.19,0c.07,0,.08,0,.14,0s.06,0,.06.1-.06.07-.1.12a.18.18,0,0,0,0,.08l.2,0,.27.05c.17,0,.1,0,.22.07s.16.08.27.09.18-.17.26-.2a2.47,2.47,0,0,0,.36-.12c.18-.08.08-.08.12-.12a.7.7,0,0,1,.26-.1c.13,0,.06,0,.11-.1a.64.64,0,0,0,.09-.2Zm5.23-9.25s-.15-.2-.18-.2h-.29s-.1,0-.11,0,0,0,0,0a.84.84,0,0,0-.2.07s-.05,0,0,.08.06.06.06.09,0,.08,0,.11a1.13,1.13,0,0,0,0,.17.33.33,0,0,0,.08.12s0,.08.14.09,0,0,.14,0a1.7,1.7,0,0,1,.26-.05s.06.06.08.07.09.1.13,0,.09-.14.06-.17-.1-.06-.07-.12,0-.09.06-.13.1,0,.12-.06,0,0,0-.05.15,0,.16,0,0,0,.07,0l.06,0s.06,0,0,.09l0,.11s-.18,0-.21,0l0,0,0,.07a.27.27,0,0,0,0,.14c0,.06,0,.08,0,.12a.24.24,0,0,0,0,.09h0s.05,0,.08-.05a.89.89,0,0,1,.08-.14l.11-.11s0,0,0,0a1.24,1.24,0,0,1-.05.15.36.36,0,0,1,0,.12.18.18,0,0,0-.09.09.52.52,0,0,0,0,.15.36.36,0,0,0,0,.12s0,0,.07,0l.13,0s0,0,.06,0,.05.21.11.08a2.39,2.39,0,0,0,.1-.34c0-.11-.05-.07,0-.15l.13-.1a1.08,1.08,0,0,0,.08-.19c0-.09,0-.24.06-.25s0-.11.09-.11a1.6,1.6,0,0,0,.23,0,1.48,1.48,0,0,0,.19-.09.64.64,0,0,1,.19-.07s.13,0,0-.06a.58.58,0,0,0-.34,0s-.05,0-.07,0,0-.07,0-.11-.08-.08-.15-.06a.77.77,0,0,1-.28,0s-.11,0-.15,0-.12.11-.18,0-.13-.17-.18-.19-.15,0-.21.07-.13,0-.09,0l.06.1s0,.11,0,.13.07,0,0,.08A.24.24,0,0,1,391.77,188.83Zm2.49-1.27-.19,0-.15,0c-.09,0-.18,0-.23,0s0,.08-.06.08l-.18,0s0-.06,0-.1-.15,0-.24,0,0,.1,0,.12.05,0,.15.09-.06.14-.06.14h-.14a1.26,1.26,0,0,1-.3-.11c-.09,0,0-.11,0-.16s0-.11,0-.1,0,.07-.09.12l-.11.12s.05.11.06.12l.07.05a.44.44,0,0,1-.14.09c-.05,0-.06-.06-.1-.07s-.14.11-.14.12,0,0,.1.06l.1.06a.61.61,0,0,0,0,.12c0,.05.2,0,.2,0s.17-.18.21-.17a1.46,1.46,0,0,1,.31-.15c.28-.09,0,0,0,.07s0,0-.07,0l-.09,0s-.06.06-.11.13,0,0,.07,0,.06,0,.1,0,.05,0,.13,0l.23,0c.13,0,.06,0,.17,0s0-.06.05-.12.06,0,.06,0h.23c.09,0,.08,0,.1-.06s0-.11.06-.12a.63.63,0,0,0,.14-.07c.07,0,.07-.2.07-.2S394.29,187.56,394.26,187.56Zm.83-.4-.07.16a1.25,1.25,0,0,0,0,.12s0,0,.08,0,0-.06.11-.13l.15-.11c.06,0,.1.06.06,0S395.12,187.07,395.09,187.16Zm-.44,1a.85.85,0,0,0-.14.15s0,.06,0,.09,0,0,0,0,.14-.07.17-.09,0-.07.1-.1.08,0,.12-.06,0-.1-.07-.1A.76.76,0,0,0,394.65,188.12Zm-1.05.83-.2.09c-.11.06-.14.07-.14.08s-.06.08,0,.1.08,0,.08,0-.06.05-.06.07,0,0,0,0a.11.11,0,0,0,.07.06s.07,0,.1,0,.09-.09.19-.11.12,0,.11,0,0,.06,0,0a.2.2,0,0,0,.1-.06.08.08,0,0,1,0-.1.53.53,0,0,1,.14-.08c.07,0,.06-.09,0-.11s-.19,0-.23-.05-.1-.08-.11-.08S393.59,189,393.59,189Zm-1.84.89a.33.33,0,0,0-.08-.11.46.46,0,0,0-.12-.07l-.15,0-.07,0a.09.09,0,0,0,0,.09.21.21,0,0,0,.11.06c.05,0,.12.07.15.08Zm9.38-5.2a.46.46,0,0,0-.12,0l-.12.12-.11.09s-.06,0,0,.07l.05.11a.1.1,0,0,0,0,.05.1.1,0,0,0,.1,0s0,0,0-.06l.12,0,.14-.06.06,0s0-.07,0-.1a.45.45,0,0,0,0-.11s0-.08-.08-.07Zm.39-.54s0,0,0,.07a.25.25,0,0,0,0,.11s0,0,0,.06-.08.08-.09.12-.06,0,0,.11.11.12.12.12.23,0,.28-.17.11-.13.07-.2,0-.11-.1-.15-.13-.11-.17-.09Zm-1,1a.64.64,0,0,0-.1.12s-.05,0,0,.07a.26.26,0,0,0,.1.08h.09s.06,0,.07,0,0-.07,0-.11l.07-.09s0,0,0-.08S400.5,185.09,400.5,185.09Zm-1.67.37s-.1.17-.11.21,0,0,0,.07,0,.08,0,.1-.07,0-.07,0a.42.42,0,0,0,0,.13s.12,0,0,0-.19.08-.17.11.05.09.09.08a.74.74,0,0,0,.13-.06l.11-.06c.06,0,.15.09.17.06s0,0,0-.09,0-.18,0-.18-.12,0-.1-.12,0-.09.05-.12.17.09.11,0a.36.36,0,0,0-.21-.19S398.88,185.27,398.82,185.46Zm1.26-.79-.15.05-.16,0c-.06,0-.08,0-.09,0s0,.06,0,.08.11,0,.12,0,0,0,0,.1-.19.24-.14.25a.64.64,0,0,0,.25,0,1,1,0,0,0,.2,0l.13-.06c.05,0,.2,0,.07,0a.54.54,0,0,0-.29,0c-.06,0-.11.07-.1,0s0-.16.06-.18a.8.8,0,0,0,.19-.07.54.54,0,0,1,.06-.14s.11,0,0-.08S400.12,184.67,400.08,184.68Zm-1.54,1a.26.26,0,0,1-.08.07c-.07,0-.08,0-.11.07s0,0,0,.06.06.11,0,.14-.1,0-.07.06.05.14.09.14a.21.21,0,0,0,.11-.14c0-.06,0-.07,0-.14s0-.09.08-.12.09-.15.07-.18S398.54,185.63,398.54,185.63Zm1.19-.09s-.09.06-.15.09-.11,0-.13,0,0,.1,0,.11h.16s0,0,.07,0,.07,0,.06-.08S399.78,185.53,399.73,185.54Zm.26-1.17-.17.09a.25.25,0,0,0,0,.08s0,.11.09.1a.31.31,0,0,0,.13-.06.33.33,0,0,0,.06-.1.23.23,0,0,0,0-.07S400,184.37,400,184.37Zm1.12-.46a.2.2,0,0,0-.1.05s-.08,0,0,.06a.46.46,0,0,1,.17.07s.06.06.09,0,.07-.06,0-.09S401.2,183.87,401.12,183.9Zm-.28.5-.05,0a.94.94,0,0,0,0,.12s0,.09.07.09,0,.05.07,0a.44.44,0,0,0,0-.12s0,0,0-.1S400.84,184.4,400.84,184.4Zm-1.68,1.48h0a.4.4,0,0,0,0,.18s0,.09.07,0a.23.23,0,0,0,0-.12s0,0,0-.07,0-.1-.06-.08A.14.14,0,0,0,399.16,185.88ZM391,202.06a2.19,2.19,0,0,0-.27-.24c-.14-.1-.19-.13-.25-.23s-.06-.19-.18-.16a.41.41,0,0,1-.21,0l.22-.38a.25.25,0,0,0,0-.19c0-.12,0-.24-.1-.24s-.21-.12-.32-.07-.14.28-.14.28-.13.12-.12,0a.59.59,0,0,1,0-.24s.19-.11.19-.14,0-.16-.11-.17-.35,0-.37.08-.18.17-.18.17a.2.2,0,0,0,0,.12.59.59,0,0,1,0,.17.22.22,0,0,1-.12.12s-.14.07,0,.13a.56.56,0,0,0,.26.07s.07,0,0,.08-.09.16-.07.21a.75.75,0,0,1,0,.12s.11,0,.13-.05,0-.11,0-.08a.27.27,0,0,1,.12.24c0,.1,0,0,0,.1s0,.19,0,.22.15-.06.18-.07l.18,0s0,0,0,.1a.53.53,0,0,1,0,.15s0,0,0,.11a.54.54,0,0,1,.1.15c0,.05.06,0,0,.11s-.08.12-.13.16-.26.13-.29.23,0,.19.07.17.21,0,.17.07a.35.35,0,0,1-.1.13c-.05.06-.07.05-.09.1s.06.16.11.16.17-.06.21,0,.07.05.14,0l.13,0s.16,0,0,.06-.31.08-.37.14-.08.06-.12.16-.14.2-.16.26-.11.09,0,.09a.55.55,0,0,0,.3-.06c.11-.06.12-.13.24-.17a1,1,0,0,0,.25-.11.83.83,0,0,1,.17-.1l.16,0a1.09,1.09,0,0,0,.29-.06,1.05,1.05,0,0,0,.17-.12c.15-.12.09-.11.17-.16s.27,0,.2-.13-.15,0-.18-.05-.08-.14,0-.18,0-.07.07-.09a.23.23,0,0,0,.07-.17s0-.1-.06-.15-.14-.15-.21-.12-.13.08-.12.1-.18,0-.18,0,.07-.13.05-.19A1.62,1.62,0,0,0,391,202.06Zm-2.14-.12c-.05,0-.05.1-.13.15a.9.9,0,0,0-.17.15h.18a.58.58,0,0,1-.08.11s-.14.12-.22.1a.72.72,0,0,0-.26,0,.27.27,0,0,0,0,.16s.09-.06,0,.06,0,.15,0,.15.13,0,.17,0,.1-.09.12,0-.06.18-.1.2-.05,0-.07.05,0,.09,0,.15a1.5,1.5,0,0,0-.09.17.33.33,0,0,0,0,.12s0,0,.07,0,.06,0,.06,0,0,.08.08,0a.92.92,0,0,0,.09-.11s.08.09.12.08a.6.6,0,0,1,.16-.09c.13,0,.16,0,.24-.11s0-.11.17-.15.16,0,.25-.06a.28.28,0,0,0,.1-.28.78.78,0,0,0-.08-.21.61.61,0,0,1-.09-.18c0-.1-.1-.16-.07-.18s.46,0,.29-.12-.21-.17-.29-.22-.16-.06-.21-.09S388.86,201.94,388.83,201.94Zm13.38-13.06s-.11-.09,0-.18a2.06,2.06,0,0,1,.22-.21s0,0-.08-.08a.24.24,0,0,1-.11-.12s0,0,.13-.11l.21-.12s.09,0,.09-.11,0-.16,0-.17.07,0,.12-.13,0-.13.06-.16.25-.08.28-.19,0-.16.06-.2l.42-.21s0-.06.08-.15a.58.58,0,0,1,.2-.16c.1,0,0-.11,0-.23a.21.21,0,0,0-.09-.22s0-.12-.09-.06l-.25.11s-.07,0-.09.08a1.37,1.37,0,0,0-.07.17s0,.06-.06.11-.06,0-.14.09l-.12.1-.12.1a.93.93,0,0,1-.2.16.43.43,0,0,1-.18,0,1.68,1.68,0,0,0-.21.17s-.1,0-.12.07a.35.35,0,0,0-.05.16s0,0-.16.18-.12.09-.12.21,0,.16,0,.17,0,0-.07.05l-.21.06c-.07,0,0,.21,0,.23s.14,0,.16,0,0,0-.05.1,0,0,0,.11a.8.8,0,0,1-.08.21.84.84,0,0,1-.12.13l0,.15s-.14.06,0,.08a.45.45,0,0,0,.2,0s.09-.08.06,0-.07.1-.06.13.09,0,.16,0-.05,0,.1-.06.15,0,.25,0S402.34,188.92,402.21,188.87Zm-.48.44s-.12,0-.18,0a.25.25,0,0,0-.11.15s0,.06,0,.13,0,.11,0,.18,0,.05,0,.12,0,0-.09.15-.11.15-.06.21l.15.18a.45.45,0,0,0,.13.06,1.06,1.06,0,0,0,.08-.14s0,0,.08,0,0,0,.13,0,.12-.06.17,0,.06.07,0,.13-.13.06-.05.09-.09.06.16,0a1.37,1.37,0,0,0,.31-.06.32.32,0,0,0,.19-.1s0,0,.07,0,.1,0-.06-.07-.19-.06-.24-.13,0,.07-.14-.16a1.85,1.85,0,0,0-.22-.26.35.35,0,0,1,0-.09c0-.05,0-.06,0-.14s.07-.11,0-.18,0-.15,0-.15a.36.36,0,0,0-.21,0A.5.5,0,0,1,401.73,189.31Zm2.22,1.16a.35.35,0,0,1-.22-.08.7.7,0,0,0-.19-.1h-.23c-.08,0-.11-.09-.08,0s0,.15,0,.16,0,0,0,.07.08.11.14.1l.17,0a1.36,1.36,0,0,1,.19,0c.06,0,.08,0,.14,0S404,190.47,404,190.47Zm-.86-.16s-.08,0-.12,0a.19.19,0,0,0,0,.1s0,.07,0,.07l.11,0a.06.06,0,0,0,.06-.05s0-.06,0-.08S403.09,190.31,403.09,190.31Zm-1.8,1.43-.14,0-.16,0a.35.35,0,0,0,0,.13c0,.06,0,0,0,.12s0,.12.1.09.06-.06.1-.07.06,0,.09,0,0-.09,0-.11,0,0,.07,0,.1.06.11,0,0-.09,0-.14S401.37,191.72,401.29,191.74Zm-11.93,51.82s-.17-.16-.24-.18,0,0-.07,0a1.22,1.22,0,0,0-.24,0,.11.11,0,0,0-.11,0c-.06,0-.19,0-.06.09a.39.39,0,0,0,.24,0s0,0,.07,0a.13.13,0,0,0,.1.07c.06,0,0,0,.11,0l.2,0Zm-6.87.61s0,.08,0,.1a.49.49,0,0,1-.14.14s0,0,.07,0,.11-.1.16-.14a.55.55,0,0,0,.15-.16c.09-.12,0-.1,0-.12a.82.82,0,0,0-.19,0S382.5,244.15,382.49,244.17Zm-.31,0-.19.07a.16.16,0,0,0,0,.11.26.26,0,0,0,0,.09c0,.07.07,0,.11,0a.89.89,0,0,1,.17-.14l.15-.06Zm-2.29,1.18s0,0-.08.09,0,0-.11.06a.53.53,0,0,0-.11.14s.08.12.15.12.07,0,.14,0,0,0,0,.11-.07.1-.06.12,0,0,.08.08.15,0,.24,0a.19.19,0,0,1,.17.08c.07.07,0,0-.15.1s0,0-.07,0a.23.23,0,0,0-.23-.05c-.13,0-.07.07-.13.08s-.05,0-.13,0,0,0-.05.12.11.1.11.1l.17-.05.31,0,.32,0a.8.8,0,0,1,.19-.11.65.65,0,0,0,.16,0c.09,0,.27,0,.4-.08s0,0,.06-.13,0-.08,0-.08l-.24,0h-.16l-.17-.06c-.11,0-.13-.09-.28-.14a.62.62,0,0,1-.2-.11c-.06,0-.05,0-.11-.07a1,1,0,0,1-.17-.25Zm.59,1.07-.15.12a.36.36,0,0,0-.08.12s.05.13.15,0,.14-.17.16-.18.21-.06.15-.11a.3.3,0,0,0-.13-.05Zm.31.07a.34.34,0,0,0-.09.06s-.08,0,0,.06.06.08.07.08a.16.16,0,0,0,.07-.08.32.32,0,0,1,.06-.09Zm.06-.19s-.09.11,0,.09l.07,0a.42.42,0,0,0,.12,0s0-.05,0-.07a.19.19,0,0,0-.12,0Zm-1.67-.14H379s0,0,0,0-.07.1,0,.13,0,0,.1,0h.12s0,0,0,0,0,0,0-.1,0-.07,0-.1Zm.13.13s0,0,0,.08.1.07.11.06,0,0,0-.08,0-.1,0-.09Zm-.53-.24-.21,0-.21,0s-.11.08,0,.1l.17,0a.22.22,0,0,0,.12,0C378.72,246.13,378.79,246,378.79,246Zm-.42-.44s-.06,0-.06,0,0,.1.09.08l.1,0s0,0,0,0A.22.22,0,0,0,378.36,245.59Zm-1-1.26s-.07-.06-.08-.05a.05.05,0,0,0,0,.07l.09.1.08.08s0,0,0,0A.62.62,0,0,0,377.35,244.34Zm-.74-2.33a1.52,1.52,0,0,0,0-.22s0,0,0-.13,0-.14-.06-.14-.14-.06-.17-.05-.1,0,0,.07.07.18.09.24a.52.52,0,0,1,0,.11.32.32,0,0,0,.07.14.12.12,0,0,0,.11,0Zm-11.14-14.36a1.49,1.49,0,0,1,.05.16c0,.06,0,.06,0,.06l0,.16a.37.37,0,0,0,.12-.11.64.64,0,0,0,.08-.15s0-.05,0-.08a1,1,0,0,0-.19-.11A.16.16,0,0,0,365.47,227.64Zm-9.71-19.74-.21-.19-.18-.17c-.09-.08,0-.09-.12-.1a1.94,1.94,0,0,1-.32-.12.67.67,0,0,0-.25-.06.12.12,0,0,0,0,.19,1.48,1.48,0,0,1,.17.1c.05,0,.11.15.15.18l.28.25a.24.24,0,0,0,.06.17c.05.05,0,.09.14.1a1.27,1.27,0,0,0,.25,0l.11,0s0-.1,0-.15A.55.55,0,0,0,355.76,207.91Zm-2.06-2.72a.6.6,0,0,0,0,.28.86.86,0,0,0,0,.16c0,.06,0,.19.09.17s.11,0,.16-.09.06-.18,0-.22,0-.08-.05-.11l-.15-.12Zm0,.75a1.14,1.14,0,0,1,.15.21s.06.14.12.15.09,0,.08-.06,0-.32-.09-.35-.13-.06-.19,0A.15.15,0,0,0,353.75,205.94Zm.1-1.88a.42.42,0,0,0,.1.36,1.49,1.49,0,0,1,.08.16s.06,0,.09,0,0-.08,0-.13a.3.3,0,0,0,0-.1c-.06-.1-.08-.08-.12-.15A.43.43,0,0,0,353.85,204.05Zm-.27-1.18s.05,0,0,.07a.92.92,0,0,0,0,.16s.1.06.13.06.06,0,0,0,0-.07-.07-.11a.26.26,0,0,1,0-.13.61.61,0,0,1-.09-.12s0-.06,0-.07,0,.1,0,.1Zm-.18-.14s0,0-.06.1-.05.11-.07.15-.06.1,0,.13l.11,0s0,.09.07,0a.66.66,0,0,0,0-.16s0-.05,0-.07,0-.11,0-.14l0-.06Zm.12.5a.74.74,0,0,0,0,.1.17.17,0,0,0,0,.11.49.49,0,0,1,0,.13s0,.13,0,.11a.17.17,0,0,0,.1-.07c0-.05,0,0,0-.08s0,0,0-.08,0,0,0-.07,0-.07,0-.11l0-.07Zm.32.22s-.1.15,0,.2a.29.29,0,0,1,.07.1l0,.08s0,0,0,0,.1-.07,0-.12-.13-.08-.12-.13,0-.06,0-.09S353.84,203.45,353.84,203.45Zm21.68,2.49a1.06,1.06,0,0,0-.17.28,1.45,1.45,0,0,1-.16.26c0,.07,0,.09-.09.17s-.11.1-.12.16a.34.34,0,0,1-.1.18c-.08.09-.08,0-.13.14s-.2.07-.08.11l.16.06s.14-.06.12,0a1.29,1.29,0,0,1-.21.15s.15.07.19,0,0-.06.1-.07a.53.53,0,0,0,.12-.06l.28,0a.18.18,0,0,0,.11,0s-.16-.07,0,0,.15,0,.21,0,.11.09,0,.12-.14,0-.15.09.09.12.13.09a1,1,0,0,0,.17-.15s0,0,.09-.07a.39.39,0,0,1,.16,0s0,0,.06,0,.13,0,.09,0-.06.16,0,.12.12,0,.14-.07.1,0,.09-.07a.6.6,0,0,0,0-.1.53.53,0,0,0-.06-.14.68.68,0,0,0-.11-.11s-.12,0,0,0,.15,0,.09-.1-.1,0-.18-.15.12-.11-.11-.14a4.39,4.39,0,0,0-.62,0s-.09,0,0-.13a.65.65,0,0,1,.09-.24l.08-.14a.78.78,0,0,0,.11-.25c0-.08,0-.1,0-.16s.16-.1,0-.06l-.22.09-.07,0S375.39,205.8,375.52,205.94Zm-1.54.88-.25-.08a.67.67,0,0,0-.24,0l-.24,0,.08.08.09,0,.18.13a.42.42,0,0,1,.14,0s.05.08.16.07.27,0,.27,0S374.1,206.8,374,206.83Zm.25,1s-.12.08-.12.17,0,.13,0,.22,0,0,0,.12.07.13.12.11,0,0,.08-.1l.07-.13s.13-.16.05-.12-.1,0-.12.07S374.41,207.82,374.22,207.81Zm-.9.22c.05,0,0,0,0,.08s.07,0,.12,0,.11,0,.21.08.07-.07.08-.14,0-.07,0-.05l-.2,0c-.11,0-.25-.15-.25-.15S373.27,208,373.32,208Zm-3.29,11a1,1,0,0,1-.41-.07c-.17-.08.08-.06-.32-.19s-.3-.06-.48-.14a.89.89,0,0,0-.3-.12l-.37-.09a4,4,0,0,0-.48-.06s-.29,0-.34.07.12-.06-.22.15-.36.31-.36.31-.07.07.07,0a2.79,2.79,0,0,1,.31-.14c.16-.06.16-.11.27-.13a1.17,1.17,0,0,1,.28,0s-.09.06-.11.07-.12,0-.08.06a.53.53,0,0,0,.42.07c.2,0,.15-.07.27,0s0,.16.24.18a1,1,0,0,0,.36,0c.1,0,.08,0,.12.07a.38.38,0,0,0,.12.12s0,.17,0,.19-.21,0,0,.06.16,0,.32,0,.13-.06.28-.13.14-.1.29-.1l.26,0S370.17,219.06,370,219.06Zm-.82.81a1.24,1.24,0,0,0-.28.06l-.28.11a.34.34,0,0,0,.18.12H369s.12.1.23,0l.1-.06.21-.09s-.18-.15-.23-.14S369.25,219.86,369.21,219.86Zm2.68-.63a1,1,0,0,1-.41-.08c-.13-.08-.25-.18-.31-.17s-.07,0-.15,0-.1.12-.18.15a.81.81,0,0,1-.33,0c-.13,0-.09,0-.13,0s0,.13.09.13.11-.08.16,0,.09,0,.05.12l-.05.23a.52.52,0,0,1-.2,0c-.14,0-.15,0-.17,0s-.06.19,0,.19.1.07.21,0,.08-.07.19-.12.14-.09.22-.06.1,0,.17.06l.09.09.11-.2a.21.21,0,0,1,.16-.13s-.07,0,.18,0,.25,0,.31-.06.4,0,.35-.12A.61.61,0,0,0,371.89,219.23Zm1,.13a.73.73,0,0,0-.22,0c-.08,0-.18,0-.2.08s-.06.19,0,.2,0,.06.19,0,.09-.06.22-.13.28,0,.16-.09" transform="translate(-112.73 -161.17)"/></g><g id="med"><path class="cls-2" d="M391,209.73c0,.09.14.12.22.16a.18.18,0,0,0,.19,0,.22.22,0,0,1,.14,0,.21.21,0,0,0,.2-.09s0,0,.07,0,.11.05.19,0a.33.33,0,0,0,.31-.26.08.08,0,0,1,0,0c.08-.05.14-.15.26-.14s0,0,0-.06a.13.13,0,0,1,.1-.15.47.47,0,0,0,.18-.15.14.14,0,0,1,.12-.06.19.19,0,0,0,.12,0,.26.26,0,0,1,.17-.07c.06,0,.06-.07.1-.08s.1,0,.12-.05,0,0,.07,0l.23-.06s.1,0,.14,0,.05,0,.08,0l.23-.14s0,0,0-.06a.07.07,0,0,1,.11,0c.09.05.14,0,.19,0a.06.06,0,0,1,.09,0c.07,0,.12,0,.18,0a.38.38,0,0,1,.18-.06s0,0,0,0a.21.21,0,0,1,.15-.14.92.92,0,0,0,.16-.06,0,0,0,0,1,.05,0,.14.14,0,0,0,0,0s.07.09.11.1.06-.06.1-.1,0-.06.06-.07,0,0,0,.05,0,.17-.05.24a.09.09,0,0,0,0,.13l0,0c.16,0,.17.15.2.27a0,0,0,0,1,0,0c-.07.07-.08.17-.15.25s-.07.14,0,.21a1.54,1.54,0,0,0,.2.08s.05,0,.08-.07.13.08.21.09a.24.24,0,0,1,.1,0,.31.31,0,0,0,.25,0l.4-.1s.05,0,.07,0,.17,0,.25,0,.17,0,.23.13a.33.33,0,0,0,.27.22.3.3,0,0,0,.16,0,.22.22,0,0,1,.15,0l.4.06a.27.27,0,0,1,.13.06.38.38,0,0,0,.3,0l0,0c0-.11.16-.18.15-.32a.15.15,0,0,0,0-.1l-.09-.12c-.09-.15,0-.28,0-.41s.06,0,.09-.07l.14-.07h0c.1-.14.27-.08.4-.13s.17,0,.21.11,0,0,.08,0h.13a2.43,2.43,0,0,1,.3-.07c.06,0,.12,0,.15.07s0,0,.08,0c.19-.06.39-.07.58-.12a.07.07,0,0,1,.07,0h0c.05,0,.09-.05.15,0a.12.12,0,0,0,.15,0,.09.09,0,0,1,.09,0l.05,0c.07,0,.13.06.2,0s.13-.07.13-.16a.05.05,0,0,1,0,0c.07,0,.12-.1.2-.12l0,0a.3.3,0,0,1,.2-.08s.08,0,.07.05a0,0,0,0,0,0,0s.07,0,.11,0,0,0,0-.09,0,0,.07,0a.1.1,0,0,0,.11,0,.19.19,0,0,1,.16-.07h.09c.07,0,.12,0,.14-.12a.45.45,0,0,1,0-.1.47.47,0,0,0,0-.42s0-.07,0-.08,0,0,0-.06a.35.35,0,0,1,0-.24.29.29,0,0,0,0-.21s0-.1,0-.14,0,0,0,0,0-.19-.1-.27l-.07-.08s0-.06,0-.1a.05.05,0,0,0,0-.08c-.07,0,0-.09,0-.14a.09.09,0,0,0,0-.09s-.06-.05-.07,0-.14.12-.24.1a.12.12,0,0,0-.15.08c0,.06-.07.1-.07.17s0,0,0,0a3.06,3.06,0,0,1-.31.16.17.17,0,0,1-.2,0,.4.4,0,0,0-.33-.09,1.16,1.16,0,0,0-.21,0s0,0,0,0,0,.19-.1.25l-.13.06c-.05,0-.11,0-.16,0s-.05-.08-.09-.12a.15.15,0,0,1-.14,0s-.09,0-.1.05a.08.08,0,0,1,0,.06s0,0,0,0l0,0-.06,0a0,0,0,0,1-.06,0s0,0,0,0,.12,0,.14-.14l-.16.07,0,0a0,0,0,0,1,0,0s0,0,0,0,0,0,0,0,0,0-.09-.05-.08-.05-.08-.11,0-.11-.08-.1-.1,0-.16,0-.06,0-.05,0,0-.09,0-.14,0,0,.05,0,0,0,0,0a0,0,0,0,0,0-.06s0-.08,0-.12,0,0,0,0,0,0,0,0,0,0,0,0-.05-.06-.07-.09,0-.06,0-.1,0,0-.07,0l-.12.05s-.07,0-.07,0a.08.08,0,0,0,0-.06c-.05-.06,0-.12,0-.19H400s0,0,0,0a.09.09,0,0,1,0-.09s.05,0,0-.07H400s0,0-.07,0h0a.16.16,0,0,0-.2,0h0c-.06,0-.13,0-.17.07s-.05,0-.09,0-.08,0-.09.06a.08.08,0,0,1-.07.08c-.08,0-.08,0,0,.09h.12l0,0h-.15s0,0,0,0l0,0s.06,0,.05.06,0,0-.07,0l0,0a.06.06,0,0,0-.08,0s0,0,0,.06,0,0,0,0a.06.06,0,0,1-.08,0s0,0-.07-.05a.09.09,0,0,1-.08-.11c-.09,0-.09,0-.09.13a.2.2,0,0,0,.1.19l.19.13s.05,0,.05.07,0,0-.06,0-.07,0,0,.05,0,.07,0,.11,0,0,0,0l.34.09c.14,0,.17.08.18.22a0,0,0,0,1,0,0h-.07c-.07,0-.12,0-.18,0s0,.07.09.08a.11.11,0,0,1,.09.06c-.07.07-.14,0-.23,0s.18.15.21.27a.12.12,0,0,1-.08,0c-.05,0-.08,0-.08,0a.26.26,0,0,0,0,0,0,0,0,0,1,0,0,.18.18,0,0,0-.09-.12c-.07,0-.08,0-.11,0s-.13-.08-.12-.17a.08.08,0,0,0-.07-.08,1.4,1.4,0,0,1-.21-.1.22.22,0,0,1,0-.11s0,0,.06,0h0c.1-.11.22,0,.33,0s.05,0,.1,0c-.15,0-.27-.07-.4,0a.07.07,0,0,1-.08,0h0c-.05.08-.06,0-.12,0s-.14-.11-.2-.17l-.08,0a.17.17,0,0,1-.13-.12.06.06,0,0,0,0,0l-.06,0A.22.22,0,0,0,398,206s-.08,0-.05-.07,0,0,0,0a.12.12,0,0,1,0-.15.07.07,0,0,0,0-.06.3.3,0,0,1-.05-.23s0-.06-.05-.07a.37.37,0,0,1-.21-.13s-.07-.07-.14-.07-.07,0-.1-.06a.13.13,0,0,0-.12,0,.31.31,0,0,1-.21,0s-.06,0-.09,0-.06,0-.1,0,.07,0,.11,0-.11-.05-.16-.08a.16.16,0,0,0-.16,0,.07.07,0,0,1-.08,0,.52.52,0,0,0-.25-.1s-.05,0-.06,0,0,0,.05-.06l0,0a.78.78,0,0,0-.15-.08l-.08,0s0-.08-.08-.1l-.21-.07c0,.08,0,.16,0,.24a.1.1,0,0,1-.09,0l-.09-.13a.07.07,0,0,1,0-.06s0-.06,0-.07-.11,0-.14,0a1,1,0,0,0-.2.25s0,0,0,.06.07.06,0,.11a0,0,0,0,0,0,.05c.05.08.08.18.2.2a1.42,1.42,0,0,1,.48.22.14.14,0,0,1,.06.07.25.25,0,0,0,.12.13l.19.12a.33.33,0,0,0,.3,0l.16,0c.06,0,.08,0,.06.07v0c0,.09,0,.11.07.1a.89.89,0,0,1,.43.06.92.92,0,0,0,.3.09c.06,0,.1,0,.11.12a1.47,1.47,0,0,1,0,.15c-.07,0-.14,0-.17-.13a0,0,0,0,0,0,0,.28.28,0,0,1-.15,0c-.08,0-.11,0-.12.1s0,.11,0,.17a.08.08,0,0,0,.06.1l.09,0a.16.16,0,0,1,.12.16s0,0,0,.06a.13.13,0,0,0,0,.16s0,0,0,.06a2,2,0,0,0-.1.24s-.1,0-.13,0-.06-.06,0-.11a.14.14,0,0,0,0-.13.09.09,0,0,1,0-.1.07.07,0,0,0,0-.1l-.09-.12a.46.46,0,0,1-.09-.15.17.17,0,0,0-.07-.09s-.07,0-.1,0a.06.06,0,0,1-.07,0l0,0c-.07,0-.13,0-.13-.11s0,0-.08,0a.35.35,0,0,1-.3-.09.09.09,0,0,0-.12,0,.15.15,0,0,1-.2,0c-.17,0-.29-.13-.43-.18a.25.25,0,0,1-.08-.06s0,0,0,0-.12-.06-.18-.09a1.35,1.35,0,0,0-.2-.09s0-.05-.06-.07l-.22-.24a.1.1,0,0,0-.09,0,.77.77,0,0,1-.26,0,.15.15,0,0,0-.18.08.23.23,0,0,0,0,.08.28.28,0,0,1-.16.2c-.1.05-.14.17-.21.26a0,0,0,0,0,0,0s0,.07,0,.09a.28.28,0,0,1-.24,0l-.19-.06s-.07,0-.1,0a.09.09,0,0,1-.11,0,.2.2,0,0,0-.28.13.3.3,0,0,0,0,.33s0,0,0,.06,0,.15,0,.22a.12.12,0,0,1,0,.15.3.3,0,0,0-.1.14.07.07,0,0,1-.07.06c-.11,0-.15.09-.22.15v0c0,.14-.11.21-.12.33a1.41,1.41,0,0,1-.08.26c0,.12,0,.16.07.23l.1.07c.06,0,.06.08,0,.11a.11.11,0,0,0-.07.13.83.83,0,0,1,0,.16s0,.06,0,.08,0,.12-.08.17l0,0a.34.34,0,0,0-.14.23c0,.08,0,.08-.1.07l-.17.08s0,0-.06,0-.25,0-.36.11a.13.13,0,0,0-.06.07.14.14,0,0,1-.11.1s-.07,0-.08.09a.16.16,0,0,1-.08.12l0,.1Zm11.48-3.05a.12.12,0,0,1,.07-.07c.05,0,.12,0,.1-.1s0,0,.06,0,.14,0,.2-.09a.77.77,0,0,1,.17-.12.28.28,0,0,1-.06.13c0,.06-.06.12,0,.18s0,0-.07,0a.08.08,0,0,0-.06.05.26.26,0,0,1-.07.1s-.06.06-.12,0a.19.19,0,0,0-.11,0,.06.06,0,0,1-.09,0S402.45,206.71,402.46,206.68Zm-1.36-.09a.23.23,0,0,1-.1.23C401,206.71,401,206.67,401.1,206.59Zm-.23.3c0,.06.05.09,0,.13S400.85,207,400.87,206.89Zm-.42-.65s0,0,0,0,0,0,0,0,0,0,0,0S400.44,206.25,400.45,206.24Zm-.42-.5,0,0s.06-.09.1-.07.07.06.09.09h0a0,0,0,0,1,0,0h-.08s0,0-.07,0-.05,0-.08,0S400,205.76,400,205.74Zm.09.26s.09,0,.11,0,0,.08,0,.12A.24.24,0,0,0,400.13,206Zm.08.57h0s0,0,0,0,0,0,0,0h0a0,0,0,0,1,0,0S400.19,206.57,400.21,206.56Zm-.54-1c0-.05.05-.06.1-.06s0,.09-.06.09S399.67,205.53,399.67,205.52Zm.2.87h0s.07,0,.08.06a.13.13,0,0,1-.1,0A0,0,0,0,1,399.87,206.39Zm-.13-.37a.1.1,0,0,1-.08-.05S399.73,206,399.74,206Zm-.3-.78a0,0,0,0,1,.05,0,0,0,0,0,1,0,0s-.05,0-.06,0A0,0,0,0,1,399.44,205.24Zm0,1c-.1,0-.17-.1-.27-.11a.06.06,0,0,1,.08,0l.25,0a.15.15,0,0,1,.13.1c0,.06,0,.11.12.09a0,0,0,0,1,0,0,0,0,0,0,1,0,0,.08.08,0,0,1-.09,0A.35.35,0,0,0,399.47,206.24Zm.35,1.09s0,0,0,0,.09,0,.13-.05.08,0,.14,0l0,0a.82.82,0,0,1,.25-.1c.08,0,.08,0,.12.07a.33.33,0,0,0,.14-.09c0,.07,0,.11-.06.13l-.1,0a.24.24,0,0,0-.14.07.1.1,0,0,1-.14,0,.23.23,0,0,0-.21,0l-.05,0C399.85,207.44,399.83,207.43,399.82,207.32Zm-.3-.25s0,0,0,0,0,0,0,0,0,0,0,0S399.5,207.08,399.51,207.07Zm-.79-.3c-.05,0-.08,0-.1,0a0,0,0,0,1,0,0S398.69,206.75,398.72,206.78Zm-.18-.23.1.1c-.06,0-.11,0-.15,0A.13.13,0,0,1,398.54,206.55Zm-.37-.42.08.07c-.09,0-.14-.05-.22-.06C398.11,206.05,398.11,206.06,398.17,206.12Zm-2.39-1.63.12.18A.19.19,0,0,1,395.78,204.49Zm1.23,3.56a0,0,0,0,1-.06,0s0,0,.06,0A0,0,0,0,1,397,208.06Zm-.87-.67,0,0c.08,0,.12-.08.18-.05a.26.26,0,0,0,.24,0c.07,0,.16,0,.2-.12h0A.25.25,0,0,0,397,207a0,0,0,0,1,.07,0,.22.22,0,0,1,0,.18.23.23,0,0,0,0,.14.09.09,0,0,0,0,.08.1.1,0,0,1,0,.15s0,0,0,.08-.19,0-.27-.06-.05,0-.08,0a.17.17,0,0,1-.12,0,.87.87,0,0,0-.37-.07.1.1,0,0,1-.1-.07S396.11,207.42,396.14,207.39Zm-1.34-1.68a0,0,0,0,1,0,0s0,0,0,0,0,0,0,0Zm-.46.3.08-.12a.09.09,0,0,1,.1-.05.16.16,0,0,1,0-.14.15.15,0,0,1,.06.1.25.25,0,0,0,.06.13.12.12,0,0,1,0,.06,2.24,2.24,0,0,1,0,.27c0,.1-.06.13-.15.1s0,0,0-.07a.71.71,0,0,1-.12-.13s0-.08-.05-.11A0,0,0,0,1,394.34,206Zm.09.61s.08,0,.11,0a.38.38,0,0,0,.07-.1c0-.06.07-.07.13-.06s.09.06.14.1.07.08,0,.14a0,0,0,0,0,0,.06.28.28,0,0,1,.09.19l0,.23c0,.08,0,.09-.08.07a.09.09,0,0,0-.07,0v.08s0,.07,0,.08-.08,0-.11,0l-.08-.1a.14.14,0,0,1,0-.15s0-.09,0-.12a0,0,0,0,1,0,0,.16.16,0,0,0-.08-.17C394.43,206.73,394.43,206.73,394.43,206.62Zm-1.23.8a.09.09,0,0,1,.08,0h.05a0,0,0,0,1,0,0s0,0,0,0h0a.08.08,0,0,1-.08,0S393.19,207.43,393.2,207.42Zm-.25.24s0-.07,0-.09a.21.21,0,0,1,.11,0s0,.06,0,.09,0,.07,0,.07a.23.23,0,0,1-.1,0S392.94,207.67,392.94,207.65Zm-.27.35s0-.07,0-.08.05,0,.06,0a.11.11,0,0,1,0,.09S392.68,208,392.68,208Z" transform="translate(-112.73 -161.17)"/><circle class="cls-2" cx="403.91" cy="208.43" transform="translate(34.52 422.37) rotate(-82.92)"/><path class="cls-2" d="M400.11,205.2h0c.06,0,.12-.05.19,0s.06,0,.08,0,0,0,.06,0,0,0,.07,0l.1,0a.31.31,0,0,0,.17,0s-.09,0-.09-.06,0-.06.07-.08.1,0,.15-.05a.08.08,0,0,0-.09,0c-.05,0-.09,0-.13,0s-.05-.08,0-.12l.1,0c.06,0,.14,0,.18,0a.15.15,0,0,1,.14,0h.13c.08,0,.09,0,.1-.12a.3.3,0,0,1,.18-.26.45.45,0,0,0,.17-.11A.43.43,0,0,1,402,204c.11,0,.22,0,.29-.12a.06.06,0,0,1,0,0,.25.25,0,0,0,.15.1c.05,0,.08,0,.11-.08a0,0,0,0,1,.08,0l.1.1s.06,0,.09,0,0,0,.06,0a2.59,2.59,0,0,0,.44.05.13.13,0,0,0,.13,0,.42.42,0,0,1,.27-.12c.21,0,.23,0,.37-.21a.25.25,0,0,0,0-.29l-.06-.14c-.06-.15-.22-.18-.33-.26h0a.6.6,0,0,1-.22,0c-.11,0-.19-.11-.3-.11a.54.54,0,0,0-.24-.14.58.58,0,0,0-.32,0s-.1,0-.12,0-.13-.1-.22-.09,0,0,0-.07,0,0,0-.07h0s.08,0,.12,0,0-.07,0-.12,0-.12,0-.17,0-.08.09-.09-.08,0-.13,0-.08,0-.11-.09l.15,0s0,0,0,0,0-.06,0-.09l.11-.12s0,0,0-.07,0,0-.07,0l0,0-.05,0-.25.09s0,0,0,0-.12.12-.14.21l0,0-.27.14s0,0-.06,0,0,.1,0,.18,0,0,0-.07,0,0,0-.05,0,0,0,0-.07.2-.21.16h0c0,.07-.08,0-.1.08s0,0,.08,0a.15.15,0,0,1,.17.05s.07.08.13,0,.06.08.12.08h0s0,0,0,0a0,0,0,0,0,0,0l-.05,0-.18-.13s0,0,0-.06a0,0,0,0,1,0,0c0,.11.15.14.24.19s0,0,.06,0,.06-.07.11,0l0,0c0-.09.09-.08.16-.09s0,.05,0,.07,0,.11-.09.13h0a.18.18,0,0,0-.17.12s0,.06-.06.06-.07,0-.09.06l-.13.17c0,.06-.1,0-.15,0s0,0,0-.07-.09-.23-.22-.18a.12.12,0,0,1-.12,0,.34.34,0,0,1,.06-.15s.1-.06.13-.1h0a.34.34,0,0,1-.08-.07s-.06,0-.1,0a.17.17,0,0,0-.16,0,.1.1,0,0,1-.08,0s-.08,0-.1-.05-.09,0-.13-.05a.15.15,0,0,0,.06-.06,0,0,0,0,0,0,0s0,0,0,0,0,.1-.11,0l0,0a.17.17,0,0,1,0,.06c-.05,0-.11.07-.07.15a0,0,0,0,1,0,0,1.78,1.78,0,0,1-.11.26s-.05,0-.09,0,.14.24.07.38c-.05,0-.1,0-.15,0s0,0,0,0a.09.09,0,0,1,0,.09.13.13,0,0,0,0,.08,2.21,2.21,0,0,1,.1.35,0,0,0,0,1,0,0,0,0,0,0,1,0,0s0,0-.06,0,0,.06-.07.09.07.11,0,.18-.06.08,0,.14h0a.29.29,0,0,1,.2.17.34.34,0,0,0,.07.12,0,0,0,0,1,0,0h.1a0,0,0,0,1,0,0h.07c.07,0,.09.06,0,.12a.09.09,0,0,1-.09,0,.13.13,0,0,0-.13,0s0,0-.06,0a.06.06,0,0,1,0,0,.33.33,0,0,1-.15.22l0,0S400.1,205.19,400.11,205.2Z" transform="translate(-112.73 -161.17)"/><path class="cls-2" d="M407.94,204.22h.1l0,0a.14.14,0,0,0,0-.08s0-.05,0-.07a1.18,1.18,0,0,1-.21-.38c0-.05,0-.11-.06-.16s0-.06,0-.07-.12-.1-.21-.09,0,0,0,0,0,0,0,0h0s0,0,0,0a0,0,0,0,0,0,0c-.07,0-.06-.05-.06-.09s-.08,0-.1,0-.1,0-.11,0a.74.74,0,0,1-.11-.28.14.14,0,0,0,0-.1c-.06-.06-.09-.15-.18-.18s0,0,0,0a.41.41,0,0,1-.09-.28.4.4,0,0,0,0-.14c-.05,0-.12,0-.15,0s-.08,0-.11,0-.07-.06-.12,0,0,0,0,0a.56.56,0,0,0-.22-.23c-.06,0-.1-.11-.19-.09s0,0-.05,0,0,0,0,0l.14,0a.19.19,0,0,0,.12-.07c-.09,0-.13-.08-.17-.13a.13.13,0,0,1,0-.16.4.4,0,0,1,.18-.09s.09,0,.13,0,.05,0,.08,0,0,0,0,0,0,0,0,0-.08,0-.09-.08,0-.13-.05-.18,0,0,0-.06a0,0,0,0,0,0-.06s-.08-.05-.06-.11,0,0,0,0-.07,0-.12,0-.14,0-.14.12l-.07,0s0,0-.06,0-.06,0-.09,0a.2.2,0,0,0-.09,0,1.4,1.4,0,0,0-.16.23.15.15,0,0,1-.16.07s0,0,0,0,0,.07,0,.11,0,.06,0,0a.07.07,0,0,0-.09,0s.1,0,.11.07-.06,0-.08,0,0,0,0,0,0,.07,0,.08-.06.07-.12.06,0,0,0,.06a.18.18,0,0,1,0,.15.15.15,0,0,0,0,.08.24.24,0,0,1,0,.15.19.19,0,0,0,0,.12s.06,0,.09,0,.13,0,.14.1,0,.05.09,0,.06,0,0,.06,0,.05,0,.08a.2.2,0,0,1,.1.12.31.31,0,0,0,.12.17,1.45,1.45,0,0,0,.37.24.32.32,0,0,1,.15.13.19.19,0,0,0,.1.09.29.29,0,0,1,.15.11s0,0,.07,0,.11,0,.16,0,0,0,0,0-.14.1-.11.22,0,.23.08.34,0,0,0,0,0,0,0-.07,0,0,0,0,0,0,0,0a.06.06,0,0,0,0,.05.34.34,0,0,1,.06.17.13.13,0,0,0,0,.08.36.36,0,0,1,.09.17.14.14,0,0,0,.19.1c.1,0,.21-.06.29,0h0a.55.55,0,0,0,.26.05.36.36,0,0,0,.2-.05,1.88,1.88,0,0,1,.35-.2h0S407.94,204.18,407.94,204.22Z" transform="translate(-112.73 -161.17)"/><path class="cls-2" d="M400.11,205.2s-.06.05-.07.09h0s.08-.05.06-.11h0Z" transform="translate(-112.73 -161.17)"/><circle class="cls-2" cx="400.05" cy="205.3" transform="translate(-71.46 315.18) rotate(-64.24)"/><path class="cls-2" d="M400,205.29h0Z" transform="translate(-112.73 -161.17)"/><polygon class="cls-2" points="287.38 44.02 287.38 44.02 287.38 44.02 287.38 44.02"/><polygon class="cls-2" points="287.38 44.02 287.38 44.02 287.38 44.02 287.38 44.02"/><path class="cls-2" d="M403.9,208.37s0,0,0,.05S403.92,208.39,403.9,208.37Z" transform="translate(-112.73 -161.17)"/><polygon class="cls-2" points="291.18 47.26 291.18 47.26 291.18 47.25 291.18 47.26 291.18 47.26 291.18 47.26 291.18 47.26"/></g><path class="cls-6" d="M385.24,179.46c1,0,2.09,0,3.14.15A33.29,33.29,0,0,1,385.32,246c-1,0-2.09,0-3.14-.15a33.29,33.29,0,0,1,3.06-66.43m0-.43a33.72,33.72,0,0,0-3.1,67.29c1.06.1,2.13.15,3.18.15a33.72,33.72,0,0,0,3.1-67.29c-1.06-.1-2.13-.15-3.18-.15Z" transform="translate(-112.73 -161.17)"/><path class="cls-7" d="M392.8,245.17c1-.24-1.51-14.95-5.66-32.85s-8.35-32.23-9.37-32" transform="translate(-112.73 -161.17)"/><path class="cls-7" d="M397.71,243.63c4.55-1.83,2.67-17.14-4.19-34.19S377.4,180,372.86,181.87" transform="translate(-112.73 -161.17)"/><path class="cls-7" d="M402.87,241c7.15-4.45,5.07-20.71-4.64-36.31S374.84,180,367.69,184.5" transform="translate(-112.73 -161.17)"/><path class="cls-7" d="M408.48,236.62c8.15-7.92,4.38-25-8.43-38.21s-29.8-17.45-38-9.53" transform="translate(-112.73 -161.17)"/><path class="cls-7" d="M414.22,229.2c6.69-11.76-.84-28.67-16.82-37.75s-34.36-6.92-41,4.85" transform="translate(-112.73 -161.17)"/><path class="cls-7" d="M418.24,217.37c2-14.64-11-28.57-29.25-31.12s-34.62,7.25-36.67,21.89" transform="translate(-112.73 -161.17)"/><path class="cls-7" d="M417,202.63c-4.57-14.31-22.47-21.38-40-15.79s-28,21.72-23.44,36" transform="translate(-112.73 -161.17)"/><path class="cls-7" d="M410.12,190.6c-9.48-10.62-28.28-9.32-42,2.92s-17.16,30.77-7.68,41.39" transform="translate(-112.73 -161.17)"/><path class="cls-7" d="M401.73,183.82c-10.85-6.17-27,1.78-36.1,17.76s-7.66,33.94,3.2,40.1" transform="translate(-112.73 -161.17)"/><path class="cls-7" d="M394.32,180.72c-9.51-2.68-21.26,9.49-26.25,27.18s-1.32,34.21,8.18,36.89" transform="translate(-112.73 -161.17)"/><path class="cls-7" d="M388.11,179.59c-6.58-.56-13.18,13.83-14.74,32.15s2.5,33.62,9.08,34.18" transform="translate(-112.73 -161.17)"/><path class="cls-7" d="M382.74,179.56c-2.87.22-4,15.26-2.64,33.58s4.87,33,7.74,32.79" transform="translate(-112.73 -161.17)"/><path class="cls-7" d="M386.29,246a33.67,33.67,0,0,0,10.26-1.95" transform="translate(-112.73 -161.17)"/><path class="cls-7" d="M374.14,244.11c9.93,3.53,24.59.83,32.73-6l.28-.24" transform="translate(-112.73 -161.17)"/><path class="cls-7" d="M367,240.54c8.8,5.8,25.48,5.11,37.25-1.54a25.25,25.25,0,0,0,8.3-7.11" transform="translate(-112.73 -161.17)"/><path class="cls-7" d="M361.51,236c7.38,7.53,25,8.65,39.44,2.51,7.42-3.17,12.88-7.84,15-12.84" transform="translate(-112.73 -161.17)"/><path class="cls-7" d="M357.34,230.84c5.73,8.85,23.59,11.63,39.89,6.22,11.23-3.73,19.24-10.6,20.68-17.72" transform="translate(-112.73 -161.17)"/><path class="cls-7" d="M354.37,225.09c3.91,9.79,21.27,14.08,38.79,9.58,14.82-3.81,25.37-12.85,25.41-21.77" transform="translate(-112.73 -161.17)"/><path class="cls-7" d="M352.58,219c2,10.36,18.2,16,36.26,12.55s31.1-14.61,29.14-25" transform="translate(-112.73 -161.17)"/><path class="cls-7" d="M352,212.6c0,10.54,14.46,17.28,32.4,15.05s32.52-12.59,32.57-23.13a10.88,10.88,0,0,0-.78-4.11" transform="translate(-112.73 -161.17)"/><path class="cls-7" d="M352.66,206.17c-2.09,10.33,10.13,18,27.28,17s32.74-10.07,34.83-20.41a10.7,10.7,0,0,0-1.54-8.12" transform="translate(-112.73 -161.17)"/><path class="cls-7" d="M354.62,199.8c-4.1,9.71,5.26,17.94,20.92,18.38s31.68-7.08,35.78-16.79a10.41,10.41,0,0,0-2.27-11.93" transform="translate(-112.73 -161.17)"/><path class="cls-7" d="M358.05,193.61c-6.06,8.63-.12,17.14,13.26,19s29.16-3.6,35.22-12.23c4-5.69,2.88-11.61-2.93-15.44" transform="translate(-112.73 -161.17)"/><path class="cls-7" d="M363.42,187.66c-7.95,6.93-6.21,15.3,3.88,18.69S392,206.89,400,200s6.27-15.09-3.53-18.57" transform="translate(-112.73 -161.17)"/><path class="cls-7" d="M374,181.43c-9.92,3.57-14.76,10.78-10.82,16.11s15.19,6.76,25.11,3.19,14.77-10.78,10.82-16.11c-2.51-3.39-8.15-5.34-14.86-5.14" transform="translate(-112.73 -161.17)"/><ellipse class="cls-7" cx="380.75" cy="188.88" rx="15.11" ry="8.67" transform="translate(-141.29 -86.81) rotate(-10.75)"/><ellipse class="cls-7" cx="380.44" cy="187.28" rx="10.28" ry="5.9" transform="translate(-140.98 -86.93) rotate(-10.75)"/><ellipse class="cls-7" cx="380.26" cy="186.29" rx="5.21" ry="2.99" transform="translate(-140.8 -86.99) rotate(-10.75)"/><circle class="cls-7" cx="385.28" cy="212.75" r="33.28" transform="translate(-145.66 -85.55) rotate(-10.75)"/><path class="cls-2" d="M375.17,187.25c.3,1.62,2.84,2.51,5.67,2s4.87-2.27,4.57-3.89-2.84-2.51-5.67-2-4.87,2.27-4.57,3.89" transform="translate(-112.73 -161.17)"/></g></g><text class="cls-8" transform="translate(0 84.61)">Atlant</text><text class="cls-9" transform="translate(305.06 82.06)">S</text></svg>